<svg xmlns="http://www.w3.org/2000/svg" viewBox="0 0 764.47 551.51"><defs><style>.cls-1{fill:#333132;}.cls-2{fill:#1c75bc;}.cls-3{fill:#27aae1;}</style></defs><g id="Layer_2" data-name="Layer 2"><g id="Layer_1-2" data-name="Layer 1"><polygon class="cls-1" points="0 0 0 58.59 87.89 58.59 87.89 234.37 146.48 234.37 146.48 58.59 234.38 58.59 234.38 0 0 0"/><polygon class="cls-1" points="234.4 478.75 175.81 478.75 175.81 302.97 87.92 302.97 87.92 244.38 322.52 244.38 322.52 302.97 234.4 302.97 234.4 478.75"/><polygon class="cls-1" points="370.27 379.22 370.27 419.03 290.65 419.03 290.65 438.94 410.08 438.94 410.08 478.75 250.84 478.75 250.84 319.51 410.08 319.51 410.08 359.32 290.65 359.32 290.65 379.22 370.27 379.22"/><polygon class="cls-1" points="587.28 438.94 587.28 478.75 457.89 478.75 428.03 448.89 428.03 349.37 457.89 319.51 587.28 319.51 587.28 359.32 472.82 359.32 467.84 364.29 467.84 433.96 472.82 438.94 587.28 438.94"/><polygon class="cls-1" points="724.66 319.51 724.66 379.22 645.04 379.22 645.04 319.51 605.23 319.51 605.23 478.75 645.04 478.75 645.04 419.03 724.66 419.03 724.66 478.75 764.47 478.75 764.47 319.51 724.66 319.51"/><path class="cls-2" d="M0,538.84l5.09-3.05q5.39,9.88,12.42,9.89a12,12,0,0,0,5.66-1.4,10,10,0,0,0,4-3.77,9.75,9.75,0,0,0,1.38-5,10.11,10.11,0,0,0-2-5.9q-2.81-4-10.26-9.62T7,511.8a15,15,0,0,1-3.17-9.17,13.87,13.87,0,0,1,1.87-7.12,13.38,13.38,0,0,1,5.28-5.08,15.23,15.23,0,0,1,7.39-1.85,15.75,15.75,0,0,1,7.92,2.1q3.69,2.1,7.8,7.72l-4.89,3.7q-3.37-4.47-5.76-5.9a9.94,9.94,0,0,0-5.19-1.43,8.25,8.25,0,0,0-5.93,2.2,7.18,7.18,0,0,0-2.3,5.42,9.29,9.29,0,0,0,.81,3.79,14.17,14.17,0,0,0,3,4q1.17,1.14,7.74,6,7.77,5.73,10.67,10.22a16.53,16.53,0,0,1,2.89,9,15.27,15.27,0,0,1-4.95,11.32,16.61,16.61,0,0,1-12,4.81,17.64,17.64,0,0,1-9.89-2.91Q3.75,545.67,0,538.84"/><path class="cls-2" d="M118,488.58q13.61,0,22.78,9.08a31.5,31.5,0,0,1-22.29,53.85A30.64,30.64,0,0,1,96,542.38a30,30,0,0,1-9.17-22.07,31.89,31.89,0,0,1,4.18-16,30.89,30.89,0,0,1,27-15.72m.26,5.83a25.55,25.55,0,0,0-21.9,12.8A25.93,25.93,0,0,0,93,520.29a25.2,25.2,0,0,0,25.25,25.39,25.62,25.62,0,0,0,12.92-3.38,24.27,24.27,0,0,0,9.26-9.25,26.06,26.06,0,0,0,3.32-13,25.45,25.45,0,0,0-3.32-12.9,24.87,24.87,0,0,0-9.37-9.23,25.3,25.3,0,0,0-12.81-3.46"/><polygon class="cls-2" points="203.64 490.09 209.63 490.09 209.63 544.22 232.68 544.22 232.68 550 203.64 550 203.64 490.09"/><path class="cls-2" d="M284.08,490.09h6v36.17a76.11,76.11,0,0,0,.24,8,13.31,13.31,0,0,0,2.08,5.93,12.21,12.21,0,0,0,5,4,15.72,15.72,0,0,0,6.8,1.61,13.31,13.31,0,0,0,5.7-1.27,12.67,12.67,0,0,0,4.56-3.5,14.16,14.16,0,0,0,2.69-5.42q.62-2.28.61-9.36V490.09h6v36.17a43.87,43.87,0,0,1-1.57,13,17.55,17.55,0,0,1-6.27,8.61,17.93,17.93,0,0,1-11.38,3.67,21.89,21.89,0,0,1-12.43-3.46,16.74,16.74,0,0,1-6.92-9.17q-1.1-3.5-1.1-12.62Z"/><rect class="cls-3" x="456.57" y="490.09" width="5.99" height="59.91"/><path class="cls-3" d="M546.51,488.58q13.62,0,22.79,9.08A31.5,31.5,0,0,1,547,551.51a30.63,30.63,0,0,1-22.49-9.13,30,30,0,0,1-9.17-22.07,32,32,0,0,1,4.17-16,30.89,30.89,0,0,1,27-15.72m.27,5.83a25.55,25.55,0,0,0-21.91,12.8,25.93,25.93,0,0,0-3.34,13.08,25.18,25.18,0,0,0,25.25,25.39,25.58,25.58,0,0,0,12.91-3.38,24.2,24.2,0,0,0,9.26-9.25,26,26,0,0,0,3.32-13A25.35,25.35,0,0,0,569,507.1a24.91,24.91,0,0,0-9.36-9.23,25.36,25.36,0,0,0-12.81-3.46"/><polygon class="cls-3" points="632.23 550 632.23 490.09 633.53 490.09 673.4 536.01 673.4 490.09 679.31 490.09 679.31 550 677.97 550 638.42 504.63 638.42 550 632.23 550"/><path class="cls-3" d="M729.41,538.84l5.09-3.05q5.37,9.88,12.42,9.89a12,12,0,0,0,5.66-1.4,9.94,9.94,0,0,0,4-3.77,9.76,9.76,0,0,0,1.39-5,10.11,10.11,0,0,0-2-5.9q-2.81-4-10.26-9.62t-9.33-8.18a15,15,0,0,1-3.18-9.17,13.88,13.88,0,0,1,1.88-7.12,13.36,13.36,0,0,1,5.27-5.08,15.26,15.26,0,0,1,7.39-1.85,15.7,15.7,0,0,1,7.92,2.1q3.69,2.1,7.8,7.72l-4.88,3.7q-3.39-4.47-5.77-5.9a9.92,9.92,0,0,0-5.19-1.43,8.27,8.27,0,0,0-5.93,2.2,7.22,7.22,0,0,0-2.3,5.42,9.14,9.14,0,0,0,.82,3.79,13.92,13.92,0,0,0,3,4q1.19,1.14,7.74,6,7.79,5.73,10.67,10.22a16.44,16.44,0,0,1,2.89,9,15.27,15.27,0,0,1-5,11.32,16.61,16.61,0,0,1-12,4.81,17.67,17.67,0,0,1-9.9-2.91q-4.44-2.93-8.18-9.76"/><path class="cls-1" d="M322.52,104.81l-29.9-29.9H163.05V234.37h39.86v-59.8h74.76l5,5v54.81h39.87V169.59l-12.46-12.46,12.46-12.46Zm-39.87,24.91-5,5H202.91V114.77h74.76l5,5Z"/><path class="cls-1" d="M447.26,82.38l-7.47-7.47H399.92l-7.47,7.47-52.33,52.33v99.66H380V189.52h79.73v44.85h39.87V134.71Zm10,69a8.22,8.22,0,0,1-8.22,8.22H390.68a8.22,8.22,0,0,1-8.22-8.22V116.59a8.22,8.22,0,0,1,8.22-8.22H449a8.22,8.22,0,0,1,8.22,8.22Z"/><polygon class="cls-1" points="557.79 142.06 557.79 234.38 517.92 234.38 517.92 74.91 545.33 74.91 637.52 167.1 637.52 74.91 677.39 74.91 677.39 234.38 649.98 234.38 557.79 142.06"/><path class="cls-3" d="M415.67,154.28l-8.14,5.35h43.36a6.42,6.42,0,0,0,6.42-6.43V114.79a6.41,6.41,0,0,0-6.42-6.42H432.25l-8.15,5.34h26.37a1.46,1.46,0,0,1,1.46,1.46v37.9a1.46,1.46,0,0,1-1.44,1.28h0Z"/><path class="cls-2" d="M424.1,113.71l8.15-5.34H388.89a6.42,6.42,0,0,0-6.43,6.42V153.2a6.43,6.43,0,0,0,6.43,6.43h18.64l8.14-5.35H389.31a1.46,1.46,0,0,1-1.46-1.46V114.93a1.45,1.45,0,0,1,1.44-1.29h0Z"/><path class="cls-3" d="M438.87,168.92h-6.25l-3.35-7.5-19,.08-3.08,7.42H401a.64.64,0,0,0-.65.64V172a.65.65,0,0,0,.65.64h37.9a.65.65,0,0,0,.65-.64v-2.44a.64.64,0,0,0-.65-.64"/><polygon class="cls-3" points="387.61 524.37 387.61 550 393.72 550 393.72 519.62 387.61 524.37"/><polygon class="cls-2" points="393.72 495.95 407.08 495.95 407.08 490.09 374.25 490.09 374.25 495.95 387.61 495.95 387.61 524.37 393.72 519.62 393.72 495.95"/></g></g></svg>