<?xml version="1.0" standalone="no"?>
<!DOCTYPE svg PUBLIC "-//W3C//DTD SVG 20010904//EN"
 "http://www.w3.org/TR/2001/REC-SVG-20010904/DTD/svg10.dtd">
<svg version="1.0" xmlns="http://www.w3.org/2000/svg"
 width="1125.000000pt" height="1125.000000pt" viewBox="0 0 1125.000000 1125.000000"
 preserveAspectRatio="xMidYMid meet">
<metadata>
Created by potrace 1.14, written by Peter Selinger 2001-2017
</metadata>
<g transform="translate(0.000000,1125.000000) scale(0.100000,-0.100000)"
fill="#000000" stroke="none">
<path d="M2850 10719 c-673 -64 -1330 -408 -1844 -967 -549 -597 -872 -1293
-978 -2107 -19 -148 -19 -3866 0 -4040 94 -843 478 -1622 1095 -2222 450 -437
1009 -733 1527 -807 218 -31 367 -37 1176 -43 l831 -6 112 156 112 157 1627 0
c1620 0 1881 5 2088 35 558 82 1082 313 1519 671 123 100 354 336 456 464 376
473 589 992 661 1615 10 85 13 532 13 1995 0 2070 3 1955 -60 2280 -94 478
-313 952 -615 1330 -110 137 -346 373 -485 484 -439 350 -928 562 -1490 646
-214 32 -666 41 -1820 38 l-1020 -3 -341 168 -340 167 -1070 -1 c-588 -1
-1107 -5 -1154 -10z m2296 -572 l239 -114 3 -1906 2 -1906 -1587 -4 c-1415 -3
-1596 -5 -1659 -19 -448 -102 -761 -400 -886 -845 -22 -76 -23 -92 -26 -739
-3 -637 -2 -666 18 -763 58 -285 233 -550 469 -710 140 -95 337 -170 503 -191
54 -6 629 -10 1633 -10 l1551 0 2 -810 1 -810 -354 0 -355 0 -127 -159 -127
-159 -306 -8 c-168 -4 -496 -8 -730 -8 -395 -1 -435 1 -567 22 -310 49 -518
118 -808 266 -774 395 -1330 1122 -1500 1961 -63 310 -60 193 -60 2395 0 1873
1 2015 18 2150 45 358 128 639 283 950 279 561 743 1018 1306 1285 153 72 369
151 506 186 224 57 222 57 1313 58 l1007 1 238 -113z m1714 -710 l0 -493 39
-18 c66 -29 121 -109 121 -176 0 -34 -22 -91 -47 -120 -99 -118 -286 -79 -329
67 -14 48 -14 58 0 107 17 58 57 101 114 125 l32 13 0 494 0 494 35 0 35 0 0
-493z m1280 3 l0 -490 -310 0 -310 0 0 -640 0 -640 -310 0 -310 0 0 -615 0
-615 310 0 310 0 0 -115 0 -115 -35 0 -35 0 0 80 0 80 -310 0 -310 0 0 685 0
685 310 0 310 0 0 640 0 640 310 0 310 0 0 448 c0 247 3 452 7 455 3 4 19 7
35 7 l28 0 0 -490z m1220 195 l30 -16 0 -239 0 -240 -310 0 -310 0 0 -1334 0
-1334 28 -10 c81 -28 141 -131 124 -212 -7 -32 -11 -35 -45 -38 -20 -2 -37 -1
-37 1 0 2 5 18 11 35 25 71 -37 152 -116 152 -79 0 -141 -81 -116 -152 6 -17
11 -33 11 -35 0 -2 -17 -3 -37 -1 -34 3 -39 7 -47 38 -18 76 44 185 120 210
l34 12 0 1369 0 1369 310 0 310 0 0 220 c0 121 2 220 5 220 4 0 19 -7 35 -15z
m660 -827 l0 -338 -315 0 -315 0 0 -1185 0 -1185 -35 17 -35 17 0 1203 0 1203
315 0 315 0 0 337 0 337 35 -34 35 -34 0 -338z m-3660 -618 l0 -590 -245 0
-245 0 0 35 0 35 210 0 210 0 0 520 0 520 -210 0 -210 0 0 35 0 35 245 0 245
0 0 -590z m3545 21 c48 -22 79 -54 100 -104 l15 -37 324 0 324 0 6 -22 c13
-50 27 -48 -328 -48 l-334 0 -7 -29 c-8 -39 -66 -96 -111 -111 -129 -43 -257
47 -256 180 2 140 140 230 267 171z m-4011 -211 c3 -21 0 -54 -8 -80 l-14 -45
-1 95 c0 93 9 105 23 30z m2304 -261 c75 -37 115 -124 98 -214 -9 -46 -75
-120 -122 -135 l-34 -12 0 -584 0 -585 -32 3 -33 3 -3 583 -2 583 -28 10 c-37
14 -91 67 -108 106 -27 62 -11 156 34 207 49 54 155 71 230 35z m-1760 -261
c120 -80 104 -269 -28 -330 l-50 -23 0 -458 0 -458 -32 3 -33 3 -3 457 -2 456
-46 22 c-68 34 -99 86 -99 170 0 55 4 73 27 107 56 84 179 108 266 51z m4342
-63 l0 -35 -380 0 -380 0 -1 -1062 c0 -937 -2 -1055 -15 -998 -7 35 -23 91
-34 124 -20 58 -20 83 -20 1033 l0 973 415 0 415 0 0 -35z m-4886 -295 c3 -21
0 -54 -8 -80 l-14 -45 -1 95 c0 93 9 105 23 30z m4791 -1019 c23 -10 53 -33
68 -50 25 -30 27 -39 27 -123 0 -81 -3 -95 -25 -123 -13 -18 -45 -41 -70 -51
l-45 -19 0 -1332 0 -1333 -26 -67 c-15 -38 -31 -72 -35 -77 -5 -6 -9 624 -9
1401 l0 1411 -30 12 c-106 44 -150 162 -99 267 43 90 151 127 244 84z m-1573
-402 c204 -79 348 -231 410 -429 l23 -75 0 -625 0 -625 -27 -73 c-89 -244
-285 -406 -533 -442 -59 -8 -976 -10 -3410 -8 l-3330 3 -81 28 c-199 67 -347
214 -427 424 -21 57 -22 69 -25 668 -3 690 -3 692 71 838 79 155 249 291 414
331 49 12 552 14 3453 13 l3395 -2 67 -26z m956 -1913 c31 -16 74 -61 91 -93
6 -12 11 -47 11 -79 0 -80 -33 -134 -100 -166 l-49 -23 -1 -671 0 -670 -35
-34 -35 -34 0 701 0 701 -45 22 c-48 23 -53 34 -30 67 15 21 15 21 52 2 46
-23 65 -24 109 -3 42 20 64 59 64 113 0 49 -35 95 -86 111 -25 8 -34 16 -30
27 3 8 6 21 6 29 0 18 43 18 78 0z m-678 -1451 l0 -714 -30 -16 c-16 -8 -31
-15 -35 -15 -3 0 -5 324 -5 719 l0 719 28 10 c15 6 30 11 35 11 4 1 7 -321 7
-714z m-3030 302 l0 -303 35 -13 c84 -30 132 -108 123 -201 -14 -144 -178
-219 -297 -136 -117 81 -103 266 24 328 l45 22 0 303 0 303 35 0 35 0 0 -303z
m1003 276 c-8 -57 62 -133 122 -133 60 0 130 76 122 133 -3 27 -2 28 32 25 36
-3 36 -3 34 -46 -3 -66 -43 -126 -103 -154 l-49 -23 -1 -702 0 -703 -35 0 -35
0 0 703 -1 702 -49 23 c-55 26 -93 78 -105 144 -9 47 -1 58 39 58 30 0 32 -2
29 -27z m777 -783 l0 -810 -24 -6 c-14 -3 -30 -3 -35 1 -8 4 -11 258 -11 816
l0 809 35 0 35 0 0 -810z m630 31 c0 -845 3 -791 -51 -791 -19 0 -19 18 -19
785 l0 785 35 0 35 0 0 -779z"/>
<path d="M6751 8845 c-89 -75 -40 -215 74 -215 84 0 146 86 115 160 -32 78
-128 106 -189 55z"/>
<path d="M9769 8145 c-45 -25 -63 -65 -60 -133 1 -13 16 -39 35 -58 28 -28 42
-34 75 -34 56 0 95 22 115 64 21 45 20 74 -4 113 -34 57 -105 78 -161 48z"/>
<path d="M8038 7667 c-69 -58 -63 -156 12 -201 104 -61 221 56 165 164 -31 60
-126 80 -177 37z"/>
<path d="M6268 7424 c-77 -41 -75 -169 2 -209 60 -31 137 -10 165 45 57 110
-58 223 -167 164z"/>
<path d="M10546 6031 c-40 -27 -55 -57 -56 -109 0 -37 6 -50 34 -78 28 -28 42
-34 75 -34 80 0 131 49 131 125 0 84 -114 144 -184 96z"/>
<path d="M2516 5091 c-44 -150 -45 -343 -2 -514 116 -456 496 -768 967 -794
374 -20 727 159 931 472 57 88 118 224 118 264 0 11 -8 25 -18 30 -10 5 -454
139 -987 297 -534 157 -975 289 -982 291 -7 3 -18 -15 -27 -46z m559 -423
c285 -70 848 -237 948 -281 l28 -12 -30 -47 c-104 -164 -388 -261 -630 -215
-198 38 -379 174 -475 357 -38 72 -66 164 -66 217 0 39 -13 40 225 -19z"/>
<path d="M8550 5089 c-722 -216 -1288 -384 -1410 -419 -217 -62 -420 -130
-420 -140 0 -5 13 -45 29 -89 69 -190 211 -366 389 -485 299 -198 714 -231
1030 -81 125 59 199 114 307 226 104 108 149 173 211 303 64 136 87 242 88
406 1 146 -26 331 -47 329 -7 -1 -86 -23 -177 -50z m-160 -387 c0 -57 -26
-149 -67 -232 -48 -100 -186 -239 -288 -292 -250 -129 -565 -95 -759 83 -48
44 -96 112 -86 123 6 5 1170 354 1188 355 7 1 12 -13 12 -37z"/>
<path d="M6268 2244 c-52 -27 -74 -109 -44 -162 58 -106 224 -64 226 56 1 94
-98 152 -182 106z"/>
</g>
</svg>
