<?xml version="1.0" standalone="no"?>
<!DOCTYPE svg PUBLIC "-//W3C//DTD SVG 20010904//EN"
 "http://www.w3.org/TR/2001/REC-SVG-20010904/DTD/svg10.dtd">
<svg version="1.0" xmlns="http://www.w3.org/2000/svg"
 width="1987.000000pt" height="1987.000000pt" viewBox="0 0 1987.000000 1987.000000"
 preserveAspectRatio="xMidYMid meet">
<metadata>
Created by potrace 1.14, written by Peter Selinger 2001-2017
</metadata>
<g transform="translate(0.000000,1987.000000) scale(0.100000,-0.100000)"
fill="#000000" stroke="none">
<path d="M7010 14885 l0 -2675 180 0 180 0 0 -720 0 -720 313 -2 312 -3 3
-162 2 -163 253 0 252 0 -36 30 c-115 94 -84 277 55 330 l26 10 0 575 0 575
-310 0 -310 0 0 1390 0 1390 35 0 35 0 0 -1355 0 -1355 310 0 310 0 0 -610 0
-609 43 -19 c66 -29 117 -104 117 -172 0 -39 -25 -95 -57 -131 l-35 -39 246 0
246 0 0 276 0 275 -34 14 c-119 50 -162 186 -90 288 69 97 214 110 290 25 77
-84 70 -209 -16 -282 -17 -14 -42 -29 -56 -32 l-24 -6 0 -281 0 -280 135 5
135 5 0 -388 0 -389 1435 0 1435 0 -2 898 -3 897 -503 3 -503 2 57 81 56 80
-20 22 c-113 125 -10 331 159 315 l48 -5 29 66 c86 192 154 425 189 641 17
109 18 222 18 2065 0 1826 -1 1957 -18 2065 -35 227 -106 474 -191 665 l-35
80 -1835 3 -1836 2 0 -1155 0 -1155 310 0 310 0 0 -1280 0 -1280 315 0 315 0
0 -570 0 -570 275 0 275 0 0 315 0 315 330 0 330 0 0 -35 0 -35 -295 0 -295 0
0 -315 0 -315 -345 0 -345 0 0 570 0 570 -315 0 -315 0 0 1280 0 1280 -310 0
-310 0 0 1190 0 1190 -460 0 -460 0 0 -2675z m4025 -3314 c65 -29 115 -104
115 -171 0 -68 -51 -143 -117 -172 l-43 -19 0 -68 c0 -67 -1 -69 -35 -95 l-35
-27 0 95 0 95 -44 19 c-80 36 -124 127 -104 214 26 118 153 180 263 129z
m-1148 -263 c97 -24 160 -131 134 -227 -17 -63 -52 -105 -106 -127 l-45 -19 0
-212 c0 -164 -3 -213 -12 -213 -7 0 -23 -3 -35 -6 l-23 -6 0 220 0 220 -25 6
c-31 8 -92 61 -109 95 -54 108 3 235 122 271 38 12 47 11 99 -2z"/>
<path d="M10890 11498 c-71 -48 -71 -148 -1 -195 69 -47 155 -17 181 62 35
105 -88 196 -180 133z"/>
<path d="M9783 11234 c-43 -22 -66 -60 -66 -109 0 -135 184 -167 232 -40 38
99 -71 197 -166 149z"/>
<path d="M7008 11973 l-3 -168 -35 -3 c-176 -13 -443 -76 -648 -153 -393 -147
-759 -386 -1077 -704 -290 -289 -505 -581 -685 -929 -75 -145 -150 -308 -150
-327 0 -5 93 -9 218 -9 l217 0 45 97 c61 133 182 331 284 466 274 366 601 636
1011 837 275 135 490 208 715 245 52 8 97 15 100 15 3 0 5 -201 5 -447 l0
-448 463 -3 463 -2 -3 127 -3 128 -312 3 -313 2 0 720 0 720 -145 0 -145 0 -2
-167z"/>
<path d="M11552 11890 c-19 -12 -40 -37 -49 -58 -13 -32 -14 -42 -2 -76 8 -22
19 -41 25 -43 9 -3 114 171 114 190 0 15 -56 6 -88 -13z"/>
<path d="M9170 11307 c-41 -14 -80 -68 -80 -111 0 -77 79 -138 151 -117 113
34 121 182 13 227 -39 16 -39 16 -84 1z"/>
<path d="M8529 10725 c-39 -21 -59 -59 -59 -111 0 -39 5 -51 34 -80 29 -29 41
-34 80 -34 58 0 112 43 122 97 18 95 -92 174 -177 128z"/>
</g>
</svg>
