<?xml version="1.0" standalone="no"?>
<!DOCTYPE svg PUBLIC "-//W3C//DTD SVG 20010904//EN"
 "http://www.w3.org/TR/2001/REC-SVG-20010904/DTD/svg10.dtd">
<svg version="1.0" xmlns="http://www.w3.org/2000/svg"
 width="150.000000pt" height="150.000000pt" viewBox="0 0 150.000000 150.000000"
 preserveAspectRatio="xMidYMid meet">
<metadata>
Created by potrace 1.14, written by Peter Selinger 2001-2017
</metadata>
<g transform="translate(0.000000,150.000000) scale(0.100000,-0.100000)"
fill="#000000" stroke="none">
<path d="M70 1372 c-68 -34 -68 -34 -67 -505 2 -389 3 -424 20 -449 32 -47 68
-56 228 -56 l147 0 83 54 84 53 -216 1 c-161 0 -219 3 -227 12 -16 21 -13 775
4 789 14 12 344 16 363 5 7 -5 11 -44 11 -107 0 -54 3 -99 6 -99 5 0 480 305
493 316 2 2 -198 4 -445 4 -407 0 -452 -2 -484 -18z"/>
<path d="M1020 1335 l-85 -54 225 -3 225 -3 0 -400 0 -400 -190 0 -190 0 -1
98 c-1 54 -4 100 -7 104 -3 3 -43 -19 -89 -49 -46 -30 -148 -97 -228 -148 -80
-51 -151 -98 -159 -105 -11 -11 73 -13 435 -13 493 0 487 0 524 61 19 30 20
53 20 452 0 399 -1 422 -20 452 -33 55 -61 63 -227 63 l-148 0 -85 -55z"/>
<path d="M547 298 c-8 -18 -23 -52 -32 -75 -18 -46 -14 -44 -109 -47 -34 -1
-40 -5 -47 -28 -4 -17 -3 -31 4 -36 13 -11 777 -13 778 -3 0 3 2 18 4 33 4 32
-7 37 -84 37 -29 0 -54 1 -55 3 -1 2 -16 35 -33 73 l-31 70 -190 3 -190 2 -15
-32z"/>
</g>
</svg>
