<?xml version="1.0" standalone="no"?>
<!DOCTYPE svg PUBLIC "-//W3C//DTD SVG 20010904//EN"
 "http://www.w3.org/TR/2001/REC-SVG-20010904/DTD/svg10.dtd">
<svg version="1.0" xmlns="http://www.w3.org/2000/svg"
 width="700.000000pt" height="700.000000pt" viewBox="0 0 700.000000 700.000000"
 preserveAspectRatio="xMidYMid meet">
<metadata>
Created by potrace 1.14, written by Peter Selinger 2001-2017
</metadata>
<g transform="translate(0.000000,700.000000) scale(0.100000,-0.100000)"
fill="#000000" stroke="none">
<path d="M2463 4405 c-246 -67 -464 -336 -594 -733 -91 -280 -120 -501 -100
-774 46 -655 260 -1063 606 -1153 75 -19 213 -19 305 0 205 43 532 198 965
458 324 194 421 238 571 258 145 19 294 -10 439 -84 86 -44 165 -118 388 -359
118 -128 205 -193 313 -234 95 -36 204 -32 282 11 68 37 158 132 211 222 219
377 316 1151 201 1603 -72 284 -238 420 -447 366 -97 -24 -185 -74 -348 -197
-266 -199 -451 -308 -577 -338 -179 -43 -412 48 -849 331 -576 372 -633 407
-881 529 -94 46 -188 84 -228 93 -84 19 -187 19 -257 1z m657 -721 c303 -71
540 -379 540 -703 0 -84 0 -85 -16 -56 -47 92 -150 155 -253 155 -83 0 -128
-14 -187 -59 -132 -100 -150 -296 -38 -420 56 -62 105 -89 182 -99 l57 -8 -50
-18 c-66 -24 -226 -32 -296 -16 -103 23 -198 77 -274 154 -115 116 -165 235
-165 396 0 158 49 280 160 392 l67 70 -26 10 c-35 13 -120 2 -203 -26 l-68
-24 18 31 c9 17 44 58 77 91 125 126 296 173 475 130z m2321 -282 c35 -17 75
-42 89 -55 34 -30 100 -109 100 -118 0 -4 -26 1 -57 12 -57 20 -165 31 -178
17 -4 -3 18 -31 47 -62 300 -304 63 -824 -362 -793 -78 6 -181 35 -129 36 80
2 166 59 204 134 63 128 7 282 -123 338 -111 48 -251 -1 -306 -106 -16 -30
-16 -30 -16 40 1 257 179 501 424 582 26 8 78 12 142 10 90 -2 106 -6 165 -35z"/>
<path d="M4115 2366 c-132 -31 -275 -107 -350 -186 l-30 -32 73 37 c243 121
501 137 753 45 74 -27 169 -75 229 -118 23 -16 23 -15 -5 22 -68 89 -222 187
-350 221 -84 23 -245 28 -320 11z"/>
</g>
</svg>
