<svg xmlns="http://www.w3.org/2000/svg" xmlns:xlink="http://www.w3.org/1999/xlink" width="500" zoomAndPan="magnify" viewBox="0 0 375 374.999991" height="500" preserveAspectRatio="xMidYMid meet" version="1.0"><defs><clipPath id="id1"><path d="M 7 6.164062 L 347 6.164062 L 347 350 L 7 350 Z M 7 6.164062 " clip-rule="nonzero"/></clipPath><clipPath id="id2"><path d="M 46 47 L 368 47 L 368 369.164062 L 46 369.164062 Z M 46 47 " clip-rule="nonzero"/></clipPath></defs><g clip-path="url(#id1)"><path fill="#263749" d="M 53.132812 142.039062 C 50.695312 138.691406 48.714844 135.035156 46.886719 131.074219 C 35.617188 105.9375 22.820312 86.746094 7.28125 73.492188 C 18.25 70.75 29.523438 74.710938 41.097656 85.375 C 38.664062 75.929688 37.140625 64.960938 36.226562 52.320312 C 53.132812 65.265625 61.511719 80.652344 59.835938 98.476562 C 58.769531 109.441406 59.378906 118.125 61.96875 124.828125 C 63.796875 130.007812 66.84375 133.816406 70.957031 136.558594 C 74.15625 138.691406 78.117188 139.910156 82.835938 140.367188 C 78.726562 135.339844 77.355469 130.160156 78.421875 124.21875 C 79.488281 117.820312 83.140625 110.660156 88.625 102.28125 C 93.5 94.972656 96.546875 88.269531 97.917969 82.175781 C 102.792969 62.066406 89.84375 48.664062 61.664062 43.636719 C 68.671875 41.65625 77.355469 40.132812 87.710938 38.761719 L 81.921875 6.316406 C 113 27.488281 130.363281 45.921875 132.191406 59.785156 C 132.800781 65.113281 131.277344 69.683594 127.316406 73.644531 C 123.203125 77.605469 119.550781 81.414062 116.351562 85.070312 C 108.886719 93.753906 104.164062 102.128906 104.011719 111.878906 C 129.601562 85.222656 165.550781 68.769531 205.460938 68.769531 C 283.148438 68.769531 346.0625 131.683594 346.0625 209.371094 C 346.0625 287.058594 283.148438 349.96875 205.460938 349.96875 C 127.773438 349.96875 64.863281 287.058594 64.863281 209.371094 C 64.863281 192.003906 68.0625 175.554688 73.699219 160.167969 C 70.042969 158.1875 66.539062 155.902344 63.1875 153.160156 C 59.378906 149.960938 56.027344 146.304688 53.132812 142.191406 Z M 53.132812 142.039062 " fill-opacity="1" fill-rule="evenodd"/></g><path fill="#263749" d="M 252.226562 227.039062 C 249.484375 195.050781 287.109375 177.078125 302.039062 202.820312 C 295.488281 200.078125 290.917969 199.46875 288.328125 200.992188 C 298.992188 208.609375 302.039062 222.925781 295.488281 234.199219 C 288.9375 245.472656 274.773438 249.738281 263.042969 244.253906 C 269.898438 245.015625 276.144531 240.445312 277.515625 233.742188 C 278.734375 227.039062 274.621094 220.339844 267.917969 218.664062 C 261.214844 216.988281 254.359375 220.644531 252.226562 227.191406 Z M 252.226562 227.039062 " fill-opacity="1" fill-rule="evenodd"/><path fill="#263749" d="M 136.304688 191.394531 C 154.128906 160.472656 199.371094 182.253906 196.171875 220.644531 C 193.582031 212.722656 185.203125 208.304688 177.28125 210.4375 C 169.207031 212.570312 164.332031 220.492188 165.855469 228.5625 C 167.378906 236.636719 174.996094 242.273438 183.222656 241.207031 C 169.054688 247.910156 152.148438 242.578125 144.226562 229.171875 C 136.304688 215.617188 140.113281 198.25 152.757812 189.261719 C 149.558594 187.433594 144.074219 188.195312 136.304688 191.546875 Z M 136.304688 191.394531 " fill-opacity="1" fill-rule="evenodd"/><path fill="#ffffff" d="M 199.980469 260.097656 C 207.59375 251.566406 218.5625 246.996094 229.835938 247.605469 C 241.261719 248.214844 251.617188 254.003906 258.320312 263.140625 C 241.414062 249.890625 218.105469 248.671875 199.980469 260.097656 Z M 199.980469 260.097656 " fill-opacity="1" fill-rule="evenodd"/><path fill="#ffffff" d="M 229.835938 242.882812 C 209.878906 242.273438 194.039062 262.535156 152.910156 278.679688 C 106.144531 297.113281 94.414062 244.253906 94.414062 210.132812 C 94.414062 207.847656 94.566406 205.410156 94.71875 203.125 C 97.917969 172.050781 117.265625 125.132812 152.910156 141.585938 C 191.601562 159.40625 216.277344 184.996094 241.414062 190.480469 C 253.445312 193.070312 268.527344 182.101562 284.671875 169.613281 C 315.140625 146 330.523438 171.898438 325.953125 221.40625 C 324.429688 238.769531 314.683594 292.695312 284.671875 278.527344 C 263.042969 268.320312 262.28125 243.796875 229.835938 242.730469 Z M 196.171875 220.644531 C 199.371094 182.253906 154.128906 160.472656 136.304688 191.394531 C 144.074219 188.042969 149.558594 187.28125 152.757812 189.109375 C 139.960938 198.25 136.304688 215.464844 144.226562 229.019531 C 152.148438 242.578125 169.054688 247.757812 183.222656 241.054688 C 174.996094 242.121094 167.378906 236.484375 165.855469 228.410156 C 164.332031 220.339844 169.359375 212.265625 177.28125 210.285156 C 185.355469 208.152344 193.582031 212.722656 196.171875 220.492188 Z M 267.917969 218.511719 C 274.621094 220.1875 278.734375 226.886719 277.515625 233.589844 C 276.296875 240.292969 269.898438 245.015625 263.042969 244.101562 C 274.773438 249.585938 288.9375 245.320312 295.488281 234.046875 C 302.039062 222.773438 298.992188 208.457031 288.328125 200.839844 C 290.917969 199.316406 295.488281 199.925781 302.039062 202.667969 C 287.261719 176.925781 249.636719 195.050781 252.226562 226.886719 C 254.359375 220.339844 261.214844 216.683594 267.917969 218.359375 Z M 267.917969 218.511719 " fill-opacity="1" fill-rule="evenodd"/><g clip-path="url(#id2)"><path fill="#263749" d="M 311.179688 312.953125 C 337.835938 286.296875 354.441406 249.433594 354.441406 208.609375 C 354.441406 167.9375 337.988281 130.921875 311.179688 104.261719 C 284.519531 77.605469 247.65625 61.003906 206.832031 61.003906 C 172.40625 61.003906 140.570312 72.882812 115.4375 92.6875 C 116.65625 91.011719 118.027344 89.183594 119.550781 87.660156 C 122.898438 83.699219 126.554688 80.042969 130.363281 76.386719 C 133.867188 72.882812 136 68.769531 136.609375 64.046875 C 157.785156 53.691406 181.699219 47.902344 206.832031 47.902344 C 251.160156 47.902344 291.375 65.875 320.320312 94.972656 C 349.414062 124.066406 367.386719 164.128906 367.386719 208.457031 C 367.386719 252.785156 349.414062 293 320.320312 321.941406 C 291.222656 351.035156 251.160156 369.011719 206.832031 369.011719 C 162.503906 369.011719 122.289062 351.035156 93.347656 321.941406 C 64.253906 292.847656 46.277344 252.785156 46.277344 208.457031 C 46.277344 188.652344 49.78125 169.765625 56.332031 152.246094 C 57.703125 153.617188 59.074219 154.835938 60.597656 156.054688 C 62.730469 157.730469 64.863281 159.40625 67.148438 160.929688 C 62.121094 175.859375 59.378906 191.851562 59.378906 208.457031 C 59.378906 249.128906 75.832031 286.144531 102.640625 312.800781 C 129.296875 339.460938 166.160156 356.0625 206.984375 356.0625 C 247.65625 356.0625 284.671875 339.613281 311.332031 312.800781 Z M 311.179688 312.953125 " fill-opacity="1" fill-rule="evenodd"/></g></svg>