<svg xmlns="http://www.w3.org/2000/svg" xmlns:xlink="http://www.w3.org/1999/xlink" viewBox="0 0 1756.15 1987.15"><defs><style>.cls-1{fill:none;}.cls-2{clip-path:url(#clip-path);}.cls-3{fill:#f0d0b4;}.cls-4{fill:#231f20;}.cls-5{fill:#263749;}.cls-6{fill:#1ebec8;}.cls-7{clip-path:url(#clip-path-3);}.cls-8{fill:#fff;}</style><clipPath id="clip-path" transform="translate(299.08 805.44)"><rect class="cls-1" width="1123.92" height="1019.61"/></clipPath><clipPath id="clip-path-3" transform="translate(299.08 805.44)"><path class="cls-1" d="M586,80V942.61h98.8s93.59-.67,140.38-1.33c41.59-.59,80.25-12.31,116.44-32.37,44.29-24.56,78.6-59.35,103.18-103.47C1065.1,769,1076.7,729.6,1077,688c.75-115.78.33-231.57.18-347.35a251.83,251.83,0,0,0-20.37-98.7Q1024.65,166,955.26,121.43c-39.67-25.54-83.4-40.08-130.49-40.81C785,80,721.47,79.86,670,79.86c-47,0-84,.12-84,.12"/></clipPath></defs><g id="Layer_2" data-name="Layer 2"><g id="Layer_1-2" data-name="Layer 1"><g id="Artwork_9" data-name="Artwork 9"><g class="cls-2"><g class="cls-2"><path class="cls-3" d="M241.2,499.27c-12.82,0-25.21,1.74-36.51,8.18-24.38,13.91-34.38,36.13-34.89,63-.53,28.72-.35,57.46.11,86.18.2,12.56,1.24,25.17,7.24,36.77,13.58,26.23,35.48,37.51,64.52,37.49q317.66-.18,635.31-.07c3.45,0,6.9.06,10.35-.05,10.13-.35,20-2,29.09-6.73,27.06-14,37.3-37.61,37.62-66.54q.47-42.68-.07-85.34c-.21-16.23-3.09-31.94-13.15-45.45-14.54-19.52-34.3-27.52-58.27-27.49q-160.34.25-320.67.07-160.33,0-320.68,0m80,190.69c-63.44-19.87-84.63-86.22-68.82-130.64q98.55,29.14,196.18,58.09c1.48.44,2.64,2,3.81,2.91C438.13,673.3,378.89,708,321.19,690m415.7-90.58c22.47-6.75,44.93-13.54,67.42-20.22,22.13-6.58,44.3-13,68-20,9.23,35.72,3.79,67-17.51,94.35-25.1,32.26-59.22,45.7-99.55,39.78-48.74-7.16-77.46-44.64-84-73.77,21.3-8,43.62-13.54,65.58-20.12" transform="translate(299.08 805.44)"/><path class="cls-4" d="M1111.54,258.56c-16.23-57.28-46.67-105.73-90.77-145.37-59.06-53.1-129.11-78.73-208.15-79.35-78.44-.61-156.89-.21-235.33,0-6.62,0-67.84-33.62-72.71-33.63C440.51-.08,376.43,0,312.35.05c-23.05,0-45.85,2.28-68.16,8.26C187.74,23.47,140.59,54.1,101.05,96.47c-40.11,43-69,92.61-85.85,149.2C5.87,277,.45,308.9.29,341.4-.2,444.84.06,548.28.14,651.73c0,15.78.19,31.59,1.06,47.34a330.39,330.39,0,0,0,16.23,85.09,366.88,366.88,0,0,0,48.2,96.53C97.05,925.56,136,962.23,184.57,988.12c23.43,12.48,48.17,21.94,74.27,26.27,20,3.31,40.51,4.43,60.83,4.79,42.23.73,84.48.31,126.71.35h18.5c7.84-10.9,15-20.87,22.5-31.26H503q156.45,0,312.91,0a297.64,297.64,0,0,0,86.59-12.63c56.17-17.13,104.35-47.29,143.16-91.42,51.74-58.83,77.49-128.06,77.91-206.21.59-109.76.23-219.53.1-329.29a330.38,330.38,0,0,0-12.15-90.12m-229,240.67c24,0,43.73,8,58.27,27.49,10.06,13.51,12.95,29.22,13.15,45.45q.53,42.66.07,85.33c-.32,28.94-10.56,52.57-37.62,66.55-9.13,4.71-19,6.38-29.09,6.73-3.45.12-6.9.05-10.35.05q-317.65,0-635.31.08c-29,0-50.94-11.27-64.52-37.5-6-11.6-7-24.21-7.24-36.77-.46-28.73-.64-57.46-.11-86.18.51-26.89,10.51-49.1,34.89-63,11.3-6.45,23.69-8.19,36.52-8.18q160.34.08,320.67,0t320.67-.07M109.63,160.13C137.92,121.2,172.47,89.45,216,68.27c29.53-14.38,60.59-22,93.76-21.74,59.76.53,179.27,0,179.27,0l48.84,23.26v222.9c-8,6.15-16.61,12.79-25.28,19.3-17.9,13.43-61,46.34-61,46.34l.43,94.35H225.37l-.7-163.21L77.56,214.42a317.61,317.61,0,0,1,32.07-54.29M65.55,780.91A319.31,319.31,0,0,1,46.49,670.5c.38-112.34-.22-224.68.38-337A225.71,225.71,0,0,1,60,260.39c7.3.27,100.47,46.24,118.46,58.31v150c-14.33,9.8-26.76,21-36.14,35.47-12.21,18.87-17.93,39.57-18.17,61.76-.34,32.46-.28,64.93,0,97.4.15,18.85,4,37,13,53.77,1.45,2.74,2.7,5.58,3.83,7.94L71.38,794c-1.79-4-4.14-8.43-5.83-13.11m261.06,191.3c-41.71,3.73-80.79-4.58-117.48-23.25C160.34,924.13,123.37,886.5,94.9,840.9l81.21-81.27c24.15,16.71,52.65,18.14,82.45,16.94V820l68.05,41.77ZM452.22,866.75l.12,92.26-10.67,13.27h-68.8V835.62l-67.56-41.48V776.66H540v41.81ZM1077,688c-.27,41.62-11.87,81-32.15,117.44-24.58,44.13-58.89,78.92-103.17,103.48-36.2,20.06-74.86,31.78-116.45,32.37-46.79.66-140.38,1.33-140.38,1.33H676l-.26-75.82L587.19,818v-41.3s304.9.19,313.7-.83c39.19-4.49,67.48-25.2,86.22-59.42,9.31-17,12.6-35.57,12.7-54.71.16-32.17.39-64.36-.08-96.53-.79-54.32-36.78-98.63-90.07-110-7.23-1.54-237.18-1.89-237.18-1.89l.3-95.44S617.68,316.74,594,299c-2.73-2-5.32-4.28-8-6.43V80s162.64-.54,238.75.64c47.09.73,90.82,15.27,130.5,40.81,46.13,29.7,80.09,69.9,101.51,120.51a251.83,251.83,0,0,1,20.37,98.7c.15,115.78.57,231.57-.18,347.35" transform="translate(299.08 805.44)"/><path class="cls-5" d="M1056.78,241.94c-21.42-50.61-55.38-90.81-101.51-120.51-39.68-25.54-83.41-40.08-130.5-40.81C748.66,79.44,586,80,586,80V942.61h98.8s93.59-.67,140.38-1.33c41.59-.59,80.25-12.31,116.45-32.38,44.28-24.55,78.59-59.34,103.17-103.46C1065.1,769,1076.7,729.61,1077,688c.75-115.78.33-231.56.18-347.35a251.87,251.87,0,0,0-20.37-98.7" transform="translate(299.08 805.44)"/><path class="cls-6" d="M537.87,69.84,489,46.58S297.66,46,284.73,47.85a205,205,0,0,0-46.64,11c-111.33,37-191.61,143.45-191.61,267v367c0,115.88,71.52,217.73,172.6,260.8a217.59,217.59,0,0,0,49.81,15.81,271.91,271.91,0,0,0,57,6l117.81-2.46,25.4-31.84h71Z" transform="translate(299.08 805.44)"/></g><g class="cls-7"><rect class="cls-5" y="231.01" width="1756.15" height="1756.14"/><path class="cls-8" d="M26.49,255a19.14,19.14,0,1,1-38.28,0,19.16,19.16,0,0,1,19.07-19.2A19.24,19.24,0,0,1,26.49,255m-31.32,0a12.18,12.18,0,1,0,24.36,0A12.29,12.29,0,0,0,7.28,242.76,12.17,12.17,0,0,0-4.83,255" transform="translate(299.08 805.44)"/><path class="cls-8" d="M88.91,655.53a19.12,19.12,0,1,1-19-19.21,19.16,19.16,0,0,1,19,19.21m-31.28,0a12.24,12.24,0,0,0,12.25,12.21,12.22,12.22,0,0,0,0-24.43,12.23,12.23,0,0,0-12.25,12.22" transform="translate(299.08 805.44)"/><path class="cls-8" d="M151.51,135.54a19.19,19.19,0,1,1-19.21-19.21,19.2,19.2,0,0,1,19.21,19.21m-31.42,0a12.23,12.23,0,1,0,12.21-12.21,12.18,12.18,0,0,0-12.21,12.21" transform="translate(299.08 805.44)"/><path class="cls-8" d="M26.49,525.66A19.14,19.14,0,1,1,7.42,506.53a19.13,19.13,0,0,1,19.07,19.13m-31.32,0A12.3,12.3,0,0,0,7.42,537.94a12.25,12.25,0,0,0,0-24.49A12.29,12.29,0,0,0-4.83,525.66" transform="translate(299.08 805.44)"/><path class="cls-8" d="M26.49,768.51a19.14,19.14,0,1,1-38.28,0A19.25,19.25,0,0,1,7.42,749.3a19.17,19.17,0,0,1,19.07,19.21m-31.32,0A12.31,12.31,0,0,0,7.42,780.79a12.25,12.25,0,0,0,0-24.5A12.3,12.3,0,0,0-4.83,768.51" transform="translate(299.08 805.44)"/><polygon class="cls-8" points="310 0 310 469.18 247.4 469.18 247.4 724.99 184.94 724.99 184.94 838.7 115.52 838.7 115.52 775.69 56.56 775.69 56.56 768.73 122.48 768.73 122.48 831.73 177.98 831.73 177.98 718.03 240.44 718.03 240.44 462.22 303 462.22 303 0 310 0"/><polygon class="cls-8" points="310 513.12 310 791.43 247.4 791.43 247.4 909.55 240.44 909.55 240.44 784.43 303 784.43 303 513.12 310 513.12"/><polygon class="cls-8" points="372.42 1163.38 372.42 1445.25 365.46 1445.25 365.46 1170.37 310 1170.37 310 1249.74 240.44 1249.74 240.44 1044.43 247.4 1044.43 247.4 1242.82 303 1242.82 303 1163.38 372.42 1163.38"/><polygon class="cls-8" points="310 1346.88 310 1427.62 247.4 1427.62 247.4 1481.88 309.86 1481.88 309.86 1558.23 302.86 1558.23 302.86 1488.81 240.44 1488.81 240.44 1420.62 303 1420.62 303 1346.88 310 1346.88"/><polygon class="cls-8" points="497.34 508.15 497.34 644.87 434.88 644.87 434.88 773.12 372.43 773.12 372.43 917.45 309.86 917.45 309.86 1044.43 302.86 1044.43 302.86 910.45 365.46 910.45 365.46 766.15 427.92 766.15 427.92 637.87 490.38 637.87 490.38 515.11 427.92 515.11 427.92 358.57 434.88 358.57 434.88 508.15 497.34 508.15"/><polygon class="cls-8" points="497.34 1110.69 497.34 1312.51 434.88 1312.51 434.88 1507.61 372.43 1507.61 372.43 1751.89 365.46 1751.89 365.46 1500.68 427.92 1500.68 427.92 1305.45 490.38 1305.45 490.38 1117.69 427.92 1117.69 427.92 957.24 434.88 957.24 434.88 1110.69 497.34 1110.69"/><rect class="cls-8" x="427.92" y="1159.53" width="6.96" height="98.51"/><rect class="cls-8" x="1417.98" y="1454.72" width="7" height="294.43"/><path class="cls-8" d="M1141.61,631.86a19.21,19.21,0,1,1-19.21-19.21,19.23,19.23,0,0,1,19.21,19.21m-31.49,0a12.25,12.25,0,1,0,12.28-12.21,12.26,12.26,0,0,0-12.28,12.21" transform="translate(299.08 805.44)"/><path class="cls-8" d="M1157.18,171.49a19.14,19.14,0,1,1-19.08-19.21,19.13,19.13,0,0,1,19.08,19.21m-31.28,0a12,12,0,0,0,12.2,12.14,12.18,12.18,0,1,0-12.2-12.14" transform="translate(299.08 805.44)"/><path class="cls-8" d="M1079.11,480.19a19.21,19.21,0,1,1-19.2-19.22,19.11,19.11,0,0,1,19.2,19.22m-31.42,0A12.25,12.25,0,1,0,1059.91,468a12.18,12.18,0,0,0-12.22,12.22" transform="translate(299.08 805.44)"/><path class="cls-8" d="M1157.18,331.53a19.14,19.14,0,1,1-19.08-19.21,19.19,19.19,0,0,1,19.08,19.21m-31.28,0a12.14,12.14,0,1,0,12.2-12.28,12.19,12.19,0,0,0-12.2,12.28" transform="translate(299.08 805.44)"/><path class="cls-8" d="M751,683.1A19.11,19.11,0,1,1,731.8,664,19.18,19.18,0,0,1,751,683.1m-31.28,0A12.18,12.18,0,1,0,731.8,671a12.23,12.23,0,0,0-12.08,12.14" transform="translate(299.08 805.44)"/><path class="cls-8" d="M766.71,782.43a19.18,19.18,0,1,1-19.21-19.14,19.16,19.16,0,0,1,19.21,19.14m-31.42,0a12.25,12.25,0,1,0,12.21-12.21,12.23,12.23,0,0,0-12.21,12.21" transform="translate(299.08 805.44)"/><path class="cls-8" d="M766.71,600.51A19.18,19.18,0,1,1,747.5,581.3a19.12,19.12,0,0,1,19.21,19.21m-31.42,0a12.18,12.18,0,0,0,12.21,12.14,12.06,12.06,0,0,0,12.28-12.14,12.25,12.25,0,0,0-24.49,0" transform="translate(299.08 805.44)"/><path class="cls-8" d="M829.21,603.12A19.14,19.14,0,1,1,810,583.9a19.21,19.21,0,0,1,19.21,19.22m-31.28,0A12.14,12.14,0,1,0,810,590.9a12.1,12.1,0,0,0-12.07,12.22" transform="translate(299.08 805.44)"/><path class="cls-8" d="M829.21,315.82a19.14,19.14,0,1,1-38.28,0,19.14,19.14,0,1,1,38.28,0m-31.28,0A12.14,12.14,0,1,0,810,303.61a12.16,12.16,0,0,0-12.07,12.21" transform="translate(299.08 805.44)"/><path class="cls-8" d="M891.63,444.79a19.14,19.14,0,1,1-19.21-19.14,19.18,19.18,0,0,1,19.21,19.14m-31.28,0a12.18,12.18,0,1,0,12.07-12.15,12.17,12.17,0,0,0-12.07,12.15" transform="translate(299.08 805.44)"/><path class="cls-8" d="M954.05,18.44a19.1,19.1,0,1,1-19-19.2,19.1,19.1,0,0,1,19,19.2m-31.28,0A12.18,12.18,0,1,0,935.05,6.2a12.23,12.23,0,0,0-12.28,12.24" transform="translate(299.08 805.44)"/><path class="cls-8" d="M766.71,2.73a19.18,19.18,0,1,1-19.21-19.2,19.18,19.18,0,0,1,19.21,19.2m-31.42,0A12.25,12.25,0,1,0,747.5-9.51,12.21,12.21,0,0,0,735.29,2.73" transform="translate(299.08 805.44)"/><path class="cls-8" d="M1079.11,69.14a19.21,19.21,0,1,1-19.2-19.21,19.19,19.19,0,0,1,19.2,19.21m-31.42,0a12.25,12.25,0,1,0,12.22-12.25,12.25,12.25,0,0,0-12.22,12.25" transform="translate(299.08 805.44)"/><path class="cls-8" d="M1016.55,76.1a19.14,19.14,0,1,1-19.07-19.21,19.17,19.17,0,0,1,19.07,19.21m-31.28,0a12.14,12.14,0,1,0,12.21-12.21A12.2,12.2,0,0,0,985.27,76.1" transform="translate(299.08 805.44)"/><path class="cls-8" d="M1016.55,711.57a19.14,19.14,0,1,1-19.07-19.14,19.19,19.19,0,0,1,19.07,19.14m-31.28,0a12.14,12.14,0,1,0,12.21-12.21,12.06,12.06,0,0,0-12.21,12.21" transform="translate(299.08 805.44)"/><rect class="cls-8" x="1355.55" y="1298.72" width="6.93" height="450.42"/><rect class="cls-8" x="1293.06" y="1532.71" width="7" height="216.43"/><polygon class="cls-8" points="1421.48 1133.46 1421.48 1140.47 1300.06 1140.47 1300.06 1391.27 1237.57 1391.27 1237.57 1749.15 1230.63 1749.15 1230.63 1384.27 1293.06 1384.27 1293.06 1133.46 1421.48 1133.46"/><polygon class="cls-8" points="1421.48 973.42 1421.48 980.42 1355.56 980.42 1355.56 917.45 1300.06 917.45 1300.06 1031.12 1237.57 1031.12 1237.57 1286.92 1175 1286.92 1175 1749.15 1168.01 1749.15 1168.01 1279.93 1230.63 1279.93 1230.63 1024.12 1293.06 1024.12 1293.06 910.45 1362.49 910.45 1362.49 973.42 1421.48 973.42"/><polygon class="cls-8" points="1112.58 1485.11 1112.58 1749.15 1105.58 1749.15 1105.58 1492.03 1046.59 1492.03 1046.59 1485.11 1112.58 1485.11"/><rect class="cls-8" x="1105.58" y="1136.97" width="7" height="258"/><polygon class="cls-8" points="1237.57 839.59 1237.57 964.71 1175 964.71 1175 1236.02 1168 1236.02 1168 957.72 1230.64 957.72 1230.64 839.59 1237.57 839.59"/><polygon class="cls-8" points="1424.98 630.57 1424.98 749.07 1362.49 749.07 1362.49 859.27 1355.55 859.27 1355.55 742.08 1417.98 742.08 1417.98 637.56 1296.56 637.56 1296.56 630.57 1424.98 630.57"/><polygon class="cls-8" points="1362.49 683.59 1362.49 719.13 1300.06 719.13 1300.06 865.83 1293.06 865.83 1293.06 712.16 1355.55 712.16 1355.55 683.59 1362.49 683.59"/><rect class="cls-8" x="1043.16" y="1603.58" width="6.93" height="145.57"/><polygon class="cls-8" points="1175.14 704.72 1175.14 838.7 1112.58 838.7 1112.58 983.03 1050.08 983.03 1050.08 1111.24 987.66 1111.24 987.66 1234.04 1050.08 1234.04 1050.08 1390.58 1043.16 1390.58 1043.16 1241.03 980.66 1241.03 980.66 1104.31 1043.16 1104.31 1043.16 976.03 1105.58 976.03 1105.58 831.73 1168.14 831.73 1168.14 704.72 1175.14 704.72"/><path class="cls-8" d="M1157.18,269.18A19.14,19.14,0,1,1,1138.1,250a19.09,19.09,0,0,1,19.08,19.22m-31.28,0a12.06,12.06,0,0,0,12.2,12.2,12.21,12.21,0,1,0-12.2-12.2" transform="translate(299.08 805.44)"/><path class="cls-8" d="M1001,269.18A19.21,19.21,0,1,1,981.77,250,19.16,19.16,0,0,1,1001,269.18m-31.42,0a12.06,12.06,0,0,0,12.21,12.2,12.21,12.21,0,1,0-12.21-12.2" transform="translate(299.08 805.44)"/><rect class="cls-8" x="1296.56" y="1071.18" width="124.92" height="6.93"/><path class="cls-8" d="M288.57,737.16a19.12,19.12,0,1,1-19-19.21,19.05,19.05,0,0,1,19,19.21m-31.28,0a12.16,12.16,0,0,0,24.32,0,12.16,12.16,0,1,0-24.32,0" transform="translate(299.08 805.44)"/><path class="cls-8" d="M132.37,737.16A19.19,19.19,0,1,1,113.2,718a19.13,19.13,0,0,1,19.17,19.21m-31.42,0a12.23,12.23,0,0,0,24.46,0,12.23,12.23,0,0,0-24.46,0" transform="translate(299.08 805.44)"/><rect class="cls-8" x="427.99" y="1539.1" width="124.88" height="7"/><path class="cls-8" d="M191.37,746.21a19.11,19.11,0,1,1-19.21,19.08,19.06,19.06,0,0,1,19.21-19.08m0,31.29a12.18,12.18,0,0,0,0-24.36,12.18,12.18,0,1,0,0,24.36" transform="translate(299.08 805.44)"/><path class="cls-8" d="M191.37,902.41a19.18,19.18,0,1,1-19.21,19.14,19.12,19.12,0,0,1,19.21-19.14m0,31.42a12.25,12.25,0,0,0,0-24.49,12.25,12.25,0,1,0,0,24.49" transform="translate(299.08 805.44)"/><rect class="cls-8" x="486.95" y="1586.43" width="6.96" height="124.85"/><path class="cls-8" d="M191.37,25.67a19.21,19.21,0,1,1-19.21,19.22,19.16,19.16,0,0,1,19.21-19.22m0,31.43a12,12,0,0,0,12.14-12.21A12.2,12.2,0,1,0,191.37,57.1" transform="translate(299.08 805.44)"/><rect class="cls-8" x="486.95" y="709.69" width="6.96" height="124.93"/><path class="cls-8" d="M681.65,22.52a19.14,19.14,0,1,1-19.21,19.07,19.07,19.07,0,0,1,19.21-19.07m0,31.32a12.16,12.16,0,1,0-12.21-12.25,12.25,12.25,0,0,0,12.21,12.25" transform="translate(299.08 805.44)"/><path class="cls-8" d="M681.65,178.75A19.18,19.18,0,1,1,662.44,198a19.13,19.13,0,0,1,19.21-19.22m0,31.43A12.11,12.11,0,0,0,693.86,198a12.21,12.21,0,1,0-12.21,12.21" transform="translate(299.08 805.44)"/><rect class="cls-8" x="977.3" y="862.74" width="6.93" height="124.89"/><path class="cls-8" d="M1138.11,382.91A19.14,19.14,0,1,1,1118.9,402a19.09,19.09,0,0,1,19.21-19.07m0,31.28A12.18,12.18,0,1,0,1125.9,402a12.09,12.09,0,0,0,12.21,12.21" transform="translate(299.08 805.44)"/><path class="cls-8" d="M1138.11,539.11a19.18,19.18,0,1,1-19.21,19.21,19.17,19.17,0,0,1,19.21-19.21m0,31.42a12.09,12.09,0,0,0,12.14-12.21,12.18,12.18,0,1,0-12.14,12.21" transform="translate(299.08 805.44)"/><path class="cls-8" d="M401.32,255a19.13,19.13,0,1,1-19.07-19.2A19.12,19.12,0,0,1,401.32,255M370,255a12.16,12.16,0,1,0,12.21-12.21A12.21,12.21,0,0,0,370,255" transform="translate(299.08 805.44)"/><path class="cls-8" d="M463.77,119.83a19.14,19.14,0,1,1-19.06-19.21,19.16,19.16,0,0,1,19.06,19.21m-31.28,0a12.16,12.16,0,1,0,12.22-12.21,12.21,12.21,0,0,0-12.22,12.21" transform="translate(299.08 805.44)"/><path class="cls-8" d="M463.77,223.28a19.14,19.14,0,1,1-19.06-19.21,19.16,19.16,0,0,1,19.06,19.21m-31.28,0a12.16,12.16,0,1,0,12.22-12.21,12.22,12.22,0,0,0-12.22,12.21" transform="translate(299.08 805.44)"/><path class="cls-8" d="M338.86,655.53a19.13,19.13,0,1,1-19.18-19.21,19.23,19.23,0,0,1,19.18,19.21m-31.28,0a12.16,12.16,0,1,0,12.1-12.22,12.11,12.11,0,0,0-12.1,12.22" transform="translate(299.08 805.44)"/><path class="cls-8" d="M276.43,135.54a19.21,19.21,0,1,1-19.21-19.21,19.2,19.2,0,0,1,19.21,19.21m-31.45,0a12.25,12.25,0,1,0,12.24-12.21A12.2,12.2,0,0,0,245,135.54" transform="translate(299.08 805.44)"/><path class="cls-8" d="M401.32,525.66a19.13,19.13,0,1,1-19.21-19.13,19.2,19.2,0,0,1,19.21,19.13m-31.28,0a12.15,12.15,0,0,0,12.07,12.28,12.25,12.25,0,0,0,0-24.49A12.14,12.14,0,0,0,370,525.66" transform="translate(299.08 805.44)"/><path class="cls-8" d="M401.32,768.51a19.13,19.13,0,1,1-19.21-19.21,19.2,19.2,0,0,1,19.21,19.21m-31.28,0a12.16,12.16,0,0,0,12.07,12.28,12.25,12.25,0,0,0,0-24.5A12.15,12.15,0,0,0,370,768.51" transform="translate(299.08 805.44)"/><path class="cls-8" d="M588.8,69.14a19.2,19.2,0,1,1-19.17-19.21A19.21,19.21,0,0,1,588.8,69.14m-31.42,0a12.23,12.23,0,1,0,12.25-12.25,12.27,12.27,0,0,0-12.25,12.25" transform="translate(299.08 805.44)"/><path class="cls-8" d="M510.66,309.64a19.21,19.21,0,1,1-19.2-19.2,19.24,19.24,0,0,1,19.2,19.2m-31.45,0a12.23,12.23,0,1,0,12.25-12.21,12.25,12.25,0,0,0-12.25,12.21" transform="translate(299.08 805.44)"/><path class="cls-8" d="M588.66,363.91a19.13,19.13,0,1,1-19-19.21,19.16,19.16,0,0,1,19,19.21m-31.28,0a12.16,12.16,0,1,0,24.32,0,12.16,12.16,0,1,0-24.32,0" transform="translate(299.08 805.44)"/><path class="cls-8" d="M526.24,605.51a19.14,19.14,0,1,1-19.08-19.2,19.18,19.18,0,0,1,19.08,19.2m-31.32,0a12.18,12.18,0,1,0,24.36,0,12.18,12.18,0,1,0-24.36,0" transform="translate(299.08 805.44)"/><path class="cls-8" d="M588.66,705a19.13,19.13,0,1,1-19-19.22,19.16,19.16,0,0,1,19,19.22m-31.28,0a12.16,12.16,0,1,0,12.25-12.22A12.23,12.23,0,0,0,557.38,705" transform="translate(299.08 805.44)"/><path class="cls-8" d="M463.77,928a19.14,19.14,0,1,1-19.06-19.21A19.16,19.16,0,0,1,463.77,928m-31.28,0a12.16,12.16,0,1,0,12.22-12.21A12.26,12.26,0,0,0,432.49,928" transform="translate(299.08 805.44)"/><path class="cls-8" d="M651.26,341a19.19,19.19,0,1,1-19.21-19.2A19.19,19.19,0,0,1,651.26,341m-31.42,0a12.21,12.21,0,1,0,12.21-12.2A12.18,12.18,0,0,0,619.84,341" transform="translate(299.08 805.44)"/><path class="cls-8" d="M651.26,858.85a19.19,19.19,0,1,1-19.21-19.2,19.18,19.18,0,0,1,19.21,19.2m-31.42,0a12.21,12.21,0,1,0,12.21-12.2,12.18,12.18,0,0,0-12.21,12.2" transform="translate(299.08 805.44)"/><path class="cls-8" d="M588.66,275.83a19.13,19.13,0,1,1-19-19.22,19.16,19.16,0,0,1,19,19.22m-31.28,0a12.16,12.16,0,1,0,12.25-12.21,12.22,12.22,0,0,0-12.25,12.21" transform="translate(299.08 805.44)"/><path class="cls-8" d="M526.24,62.18A19.14,19.14,0,1,1,507.16,43a19.15,19.15,0,0,1,19.08,19.22m-31.32,0a12.18,12.18,0,1,0,12.24-12.25,12.26,12.26,0,0,0-12.24,12.25" transform="translate(299.08 805.44)"/><polygon class="cls-8" points="931.13 768.73 931.13 775.69 872.17 775.69 872.17 838.7 802.75 838.7 802.75 724.99 740.32 724.99 740.32 469.18 677.73 469.18 677.73 0 684.69 0 684.69 462.22 747.29 462.22 747.29 718.03 809.75 718.03 809.75 831.73 865.21 831.73 865.21 768.73 931.13 768.73"/><polygon class="cls-8" points="747.29 784.43 747.29 909.55 740.32 909.55 740.32 791.43 677.73 791.43 677.73 513.12 684.69 513.12 684.69 784.43 747.29 784.43"/><polygon class="cls-8" points="934.63 1000.11 934.63 1118.58 806.25 1118.58 806.25 1111.58 927.63 1111.58 927.63 1007.04 865.21 1007.04 865.21 889.87 872.17 889.87 872.17 1000.11 934.63 1000.11"/><polygon class="cls-8" points="872.17 1030.02 872.17 1065.56 865.21 1065.56 865.21 1037.02 802.75 1037.02 802.75 883.32 809.74 883.32 809.74 1030.02 872.17 1030.02"/><polygon class="cls-8" points="747.29 1044.43 747.29 1249.74 677.73 1249.74 677.73 1170.37 622.23 1170.37 622.23 1445.25 615.27 1445.25 615.27 1163.38 684.69 1163.38 684.69 1242.82 740.32 1242.82 740.32 1044.43 747.29 1044.43"/><polygon class="cls-8" points="747.29 1420.62 747.29 1488.81 684.83 1488.81 684.83 1558.23 677.86 1558.23 677.86 1481.88 740.32 1481.88 740.32 1427.62 677.73 1427.62 677.73 1346.88 684.69 1346.88 684.69 1420.62 747.29 1420.62"/><polygon class="cls-8" points="934.63 1163.17 934.63 1334.6 872.17 1334.6 872.17 1457.47 934.63 1457.47 934.63 1648.58 927.63 1648.58 927.63 1464.46 865.21 1464.46 865.21 1327.67 927.63 1327.67 927.63 1163.17 934.63 1163.17"/><polygon class="cls-8" points="872.17 1185.05 872.17 1294.95 809.74 1294.95 809.74 1396.41 802.75 1396.41 802.75 1287.96 865.21 1287.96 865.21 1185.05 872.17 1185.05"/><polygon class="cls-8" points="872.17 1526.13 872.17 1630.19 802.75 1630.19 802.75 1579.91 747.29 1579.91 747.29 1713.61 740.32 1713.61 740.32 1572.91 809.74 1572.91 809.74 1623.27 865.21 1623.27 865.21 1526.13 872.17 1526.13"/><polygon class="cls-8" points="684.83 910.45 684.83 1044.43 677.86 1044.43 677.86 917.45 615.27 917.45 615.27 773.12 552.81 773.12 552.81 644.87 490.38 644.87 490.38 508.15 552.81 508.15 552.81 358.57 559.8 358.57 559.8 515.11 497.34 515.11 497.34 637.87 559.8 637.87 559.8 766.15 622.23 766.15 622.23 910.45 684.83 910.45"/><polygon class="cls-8" points="622.23 1499.92 622.23 1750.79 615.26 1750.79 615.26 1506.86 552.81 1506.86 552.81 1312.03 490.38 1312.03 490.38 1110.49 552.81 1110.49 552.81 957.24 559.8 957.24 559.8 1117.41 497.34 1117.41 497.34 1304.97 559.8 1304.97 559.8 1499.92 622.23 1499.92"/><rect class="cls-8" x="552.81" y="1159.53" width="7" height="98.51"/><path class="cls-8" d="M151.44,471.81a19.12,19.12,0,1,1-19.07-19.2,19.12,19.12,0,0,1,19.07,19.2m-31.28,0a12.16,12.16,0,1,0,12.21-12.28,12.27,12.27,0,0,0-12.21,12.28" transform="translate(299.08 805.44)"/><path class="cls-8" d="M276.36,471.81a19.14,19.14,0,1,1-19.07-19.2,19.12,19.12,0,0,1,19.07,19.2m-31.31,0a12.18,12.18,0,1,0,12.24-12.28,12.3,12.3,0,0,0-12.24,12.28" transform="translate(299.08 805.44)"/><path class="cls-8" d="M276.36,335.09a19.14,19.14,0,1,1-19.07-19.2,19.06,19.06,0,0,1,19.07,19.2m-31.31,0a12.18,12.18,0,1,0,12.24-12.27,12.3,12.3,0,0,0-12.24,12.27" transform="translate(299.08 805.44)"/><path class="cls-8" d="M151.44,335.09a19.12,19.12,0,1,1-19.07-19.2,19.06,19.06,0,0,1,19.07,19.2m-31.28,0a12.16,12.16,0,1,0,12.21-12.27,12.27,12.27,0,0,0-12.21,12.27" transform="translate(299.08 805.44)"/></g><g class="cls-2"><rect class="cls-3" x="444.94" y="1280.96" width="832.19" height="279.09" rx="89.1"/><path class="cls-4" d="M889,499.23a65.59,65.59,0,0,1,65.4,65.4V665.51A65.58,65.58,0,0,1,889,730.9H235a65.58,65.58,0,0,1-65.39-65.39V564.63A65.59,65.59,0,0,1,235,499.23H889m0-47.41H235A112.94,112.94,0,0,0,122.15,564.63V665.51A112.94,112.94,0,0,0,235,778.32H889a112.93,112.93,0,0,0,112.81-112.81V564.63A112.93,112.93,0,0,0,889,451.82" transform="translate(299.08 805.44)"/><path class="cls-4" d="M252.37,559.32c-15.81,44.43,5.38,110.77,68.82,130.64,57.7,18.06,116.94-16.66,131.17-69.65-1.17-.92-2.33-2.45-3.81-2.89q-97.83-29.08-196.18-58.1m84.76,102.25c-28.84-5.76-52.36-32.35-53.55-60.34,6.23-1.13,106.34,27.23,120.41,34.11-5.7,15.19-34.39,32.71-66.86,26.23" transform="translate(299.08 805.44)"/><path class="cls-4" d="M755.29,693.27c40.33,5.92,74.45-7.52,99.55-39.78,21.3-27.36,26.74-58.63,17.51-94.35-23.74,7-45.91,13.44-68,20-22.49,6.68-44.95,13.47-67.42,20.22-22,6.58-44.28,12.07-65.58,20.12,6.53,29.13,35.24,66.61,84,73.77m82.15-94.34c2.71,19.48-15.33,53.59-51.18,62.4-28.91,7.1-60.61-7.88-68.76-26.7l119.94-35.7" transform="translate(299.08 805.44)"/><path class="cls-6" d="M283.58,601.23c1.19,28,24.71,54.58,53.55,60.34,32.47,6.48,61.16-11,66.86-26.23-14.07-6.88-114.18-35.24-120.41-34.11" transform="translate(299.08 805.44)"/><path class="cls-8" d="M786.26,661.33c35.85-8.81,53.89-42.92,51.18-62.4L717.5,634.63c8.15,18.82,39.84,33.8,68.76,26.7" transform="translate(299.08 805.44)"/></g></g></g></g></g></svg>