<svg xmlns="http://www.w3.org/2000/svg" version="1.1" xmlns:xlink="http://www.w3.org/1999/xlink" xmlns:svgjs="http://svgjs.com/svgjs" width="74.85" height="64.27"><svg xmlns="http://www.w3.org/2000/svg" viewBox="0 0 74.85 64.27"><defs><style>.cls-1{fill:#27aae1;}.cls-2{fill:#1c75bc;}</style></defs><g id="SvgjsG1001" data-name="Layer 2"><g id="SvgjsG1000" data-name="Layer 1"><path class="cls-1" d="M33.21,45.92l-8.14,5.34H68.43a6.43,6.43,0,0,0,6.42-6.43V6.42A6.43,6.43,0,0,0,68.43,0H49.78L41.64,5.34H68A1.47,1.47,0,0,1,69.47,6.8V44.7A1.46,1.46,0,0,1,68,46h0Z"></path><path class="cls-2" d="M41.64,5.34,49.78,0H6.42A6.43,6.43,0,0,0,0,6.42V44.84a6.43,6.43,0,0,0,6.42,6.42H25.07l8.14-5.34H6.85a1.47,1.47,0,0,1-1.47-1.47V6.56A1.47,1.47,0,0,1,6.83,5.27h0Z"></path><path class="cls-1" d="M56.41,60.55H50.16l-3.36-7.5-19,.09-3.08,7.41H18.51a.64.64,0,0,0-.65.64v2.44a.65.65,0,0,0,.65.64h37.9a.64.64,0,0,0,.64-.64V61.19a.64.64,0,0,0-.64-.64"></path></g></g></svg><style>@media (prefers-color-scheme: light) { :root { filter: none; } }
</style></svg>