<svg xmlns="http://www.w3.org/2000/svg" xmlns:xlink="http://www.w3.org/1999/xlink" width="500" zoomAndPan="magnify" viewBox="0 0 375 374.999991" height="500" preserveAspectRatio="xMidYMid meet" version="1.0"><defs><g/><clipPath id="id1"><path d="M 80 21.101562 L 287 21.101562 L 287 230 L 80 230 Z M 80 21.101562 " clip-rule="nonzero"/></clipPath><clipPath id="id2"><path d="M 104 46 L 299.96875 46 L 299.96875 241.601562 L 104 241.601562 Z M 104 46 " clip-rule="nonzero"/></clipPath></defs><rect x="-37.5" width="450" fill="#ffffff" y="-37.499999" height="449.999989" fill-opacity="1"/><rect x="-37.5" width="450" fill="#ffffff" y="-37.499999" height="449.999989" fill-opacity="1"/><rect x="-37.5" width="450" fill="#ffffff" y="-37.499999" height="449.999989" fill-opacity="1"/><rect x="-37.5" width="450" fill="#ffffff" y="-37.499999" height="449.999989" fill-opacity="1"/><g clip-path="url(#id1)"><path fill="#263749" d="M 108.386719 103.640625 C 106.90625 101.601562 105.703125 99.382812 104.59375 96.976562 C 97.746094 81.710938 89.972656 70.050781 80.535156 62 C 87.199219 60.335938 94.042969 62.742188 101.078125 69.21875 C 99.597656 63.480469 98.671875 56.820312 98.117188 49.136719 C 108.386719 57.003906 113.476562 66.347656 112.457031 77.175781 C 111.8125 83.835938 112.179688 89.113281 113.753906 93.183594 C 114.863281 96.328125 116.714844 98.640625 119.214844 100.308594 C 121.15625 101.601562 123.5625 102.34375 126.429688 102.621094 C 123.933594 99.566406 123.097656 96.421875 123.746094 92.8125 C 124.394531 88.925781 126.617188 84.578125 129.945312 79.488281 C 132.90625 75.046875 134.757812 70.976562 135.589844 67.273438 C 138.550781 55.0625 130.6875 46.917969 113.570312 43.863281 C 117.824219 42.660156 123.097656 41.734375 129.390625 40.902344 L 125.875 21.195312 C 144.75 34.054688 155.300781 45.253906 156.410156 53.671875 C 156.78125 56.910156 155.855469 59.6875 153.449219 62.09375 C 150.949219 64.5 148.730469 66.8125 146.789062 69.03125 C 142.253906 74.308594 139.382812 79.394531 139.292969 85.316406 C 154.835938 69.125 176.675781 59.132812 200.917969 59.132812 C 248.109375 59.132812 286.324219 97.347656 286.324219 144.539062 C 286.324219 191.726562 248.109375 229.941406 200.917969 229.941406 C 153.726562 229.941406 115.511719 191.726562 115.511719 144.539062 C 115.511719 133.988281 117.453125 123.996094 120.878906 114.648438 C 118.65625 113.445312 116.53125 112.058594 114.492188 110.394531 C 112.179688 108.449219 110.144531 106.230469 108.386719 103.730469 Z M 108.386719 103.640625 " fill-opacity="1" fill-rule="evenodd"/></g><path fill="#263749" d="M 229.324219 155.269531 C 227.660156 135.839844 250.515625 124.921875 259.582031 140.558594 C 255.601562 138.894531 252.828125 138.523438 251.253906 139.449219 C 257.730469 144.074219 259.582031 152.773438 255.601562 159.621094 C 251.625 166.46875 243.019531 169.058594 235.894531 165.726562 C 240.058594 166.191406 243.851562 163.414062 244.683594 159.34375 C 245.425781 155.269531 242.925781 151.199219 238.855469 150.183594 C 234.785156 149.164062 230.621094 151.382812 229.324219 155.363281 Z M 229.324219 155.269531 " fill-opacity="1" fill-rule="evenodd"/><path fill="#263749" d="M 158.910156 133.617188 C 169.734375 114.835938 197.214844 128.066406 195.273438 151.382812 C 193.699219 146.574219 188.609375 143.890625 183.800781 145.183594 C 178.894531 146.480469 175.933594 151.292969 176.859375 156.195312 C 177.785156 161.101562 182.410156 164.523438 187.40625 163.875 C 178.800781 167.949219 168.53125 164.710938 163.71875 156.566406 C 158.910156 148.332031 161.222656 137.78125 168.902344 132.324219 C 166.957031 131.214844 163.628906 131.675781 158.910156 133.710938 Z M 158.910156 133.617188 " fill-opacity="1" fill-rule="evenodd"/><path fill="#ffffff" d="M 197.585938 175.351562 C 202.214844 170.167969 208.875 167.390625 215.722656 167.761719 C 222.664062 168.132812 228.953125 171.648438 233.027344 177.199219 C 222.753906 169.152344 208.597656 168.410156 197.585938 175.351562 Z M 197.585938 175.351562 " fill-opacity="1" fill-rule="evenodd"/><path fill="#ffffff" d="M 215.722656 164.894531 C 203.601562 164.523438 193.976562 176.832031 168.996094 186.640625 C 140.585938 197.835938 133.460938 165.726562 133.460938 145 C 133.460938 143.613281 133.554688 142.132812 133.648438 140.742188 C 135.589844 121.867188 147.34375 93.367188 168.996094 103.363281 C 192.496094 114.1875 207.488281 129.734375 222.753906 133.0625 C 230.066406 134.636719 239.226562 127.972656 249.035156 120.386719 C 267.539062 106.042969 276.886719 121.773438 274.109375 151.847656 C 273.183594 162.394531 267.261719 195.152344 249.035156 186.546875 C 235.894531 180.347656 235.429688 165.449219 215.722656 164.800781 Z M 195.273438 151.382812 C 197.214844 128.066406 169.734375 114.835938 158.910156 133.617188 C 163.628906 131.582031 166.957031 131.121094 168.902344 132.230469 C 161.128906 137.78125 158.910156 148.238281 163.71875 156.472656 C 168.53125 164.710938 178.800781 167.855469 187.40625 163.785156 C 182.410156 164.429688 177.785156 161.007812 176.859375 156.105469 C 175.933594 151.199219 178.988281 146.296875 183.800781 145.09375 C 188.703125 143.796875 193.699219 146.574219 195.273438 151.292969 Z M 238.855469 150.089844 C 242.925781 151.105469 245.425781 155.179688 244.683594 159.25 C 243.945312 163.320312 240.058594 166.191406 235.894531 165.632812 C 243.019531 168.964844 251.625 166.375 255.601562 159.527344 C 259.582031 152.679688 257.730469 143.980469 251.253906 139.355469 C 252.828125 138.429688 255.601562 138.800781 259.582031 140.464844 C 250.605469 124.828125 227.75 135.839844 229.324219 155.179688 C 230.621094 151.199219 234.785156 148.980469 238.855469 149.996094 Z M 238.855469 150.089844 " fill-opacity="1" fill-rule="evenodd"/><g clip-path="url(#id2)"><path fill="#263749" d="M 265.132812 207.457031 C 281.328125 191.265625 291.414062 168.871094 291.414062 144.074219 C 291.414062 119.371094 281.417969 96.882812 265.132812 80.691406 C 248.941406 64.5 226.546875 54.414062 201.75 54.414062 C 180.839844 54.414062 161.5 61.628906 146.230469 73.660156 C 146.972656 72.640625 147.804688 71.53125 148.730469 70.605469 C 150.765625 68.199219 152.988281 65.980469 155.300781 63.757812 C 157.429688 61.628906 158.722656 59.132812 159.09375 56.261719 C 171.957031 49.972656 186.484375 46.457031 201.75 46.457031 C 228.675781 46.457031 253.105469 57.375 270.683594 75.046875 C 288.359375 92.71875 299.277344 117.054688 299.277344 143.980469 C 299.277344 170.910156 288.359375 195.335938 270.683594 212.917969 C 253.011719 230.589844 228.675781 241.507812 201.75 241.507812 C 174.824219 241.507812 150.394531 230.589844 132.816406 212.917969 C 115.140625 195.246094 104.222656 170.910156 104.222656 143.980469 C 104.222656 131.953125 106.351562 120.480469 110.332031 109.839844 C 111.164062 110.671875 111.996094 111.410156 112.921875 112.152344 C 114.214844 113.167969 115.511719 114.1875 116.898438 115.113281 C 113.847656 124.179688 112.179688 133.894531 112.179688 143.980469 C 112.179688 168.6875 122.175781 191.171875 138.460938 207.367188 C 154.652344 223.558594 177.042969 233.644531 201.84375 233.644531 C 226.546875 233.644531 249.035156 223.652344 265.226562 207.367188 Z M 265.132812 207.457031 " fill-opacity="1" fill-rule="evenodd"/></g><g fill="#00c2cb" fill-opacity="1"><g transform="translate(51.508519, 316.969272)"><g><path d="M 8.375 0 L 8.375 -51.90625 L 0.75 -51.90625 L 0.75 -64.25 L 28.875 -64.25 L 28.875 -51.90625 L 21.25 -51.90625 L 21.25 0 Z M 8.375 0 "/></g></g></g><g fill="#00c2cb" fill-opacity="1"><g transform="translate(81.120188, 316.969272)"><g><path d="M 2.84375 -64.25 L 22.59375 -64.25 C 25.726562 -64.25 28.15625 -63.535156 29.875 -62.109375 C 31.601562 -60.691406 32.765625 -58.695312 33.359375 -56.125 C 33.953125 -53.5625 34.25 -50.285156 34.25 -46.296875 C 34.25 -42.660156 33.773438 -39.816406 32.828125 -37.765625 C 31.890625 -35.722656 30.25 -34.304688 27.90625 -33.515625 C 29.84375 -33.109375 31.25 -32.128906 32.125 -30.578125 C 33 -29.035156 33.4375 -26.945312 33.4375 -24.3125 L 33.28125 0 L 20.71875 0 L 20.71875 -25.125 C 20.71875 -26.925781 20.367188 -28.078125 19.671875 -28.578125 C 18.972656 -29.078125 17.703125 -29.328125 15.859375 -29.328125 L 15.859375 0 L 2.84375 0 Z M 19 -40.46875 C 20.789062 -40.46875 21.6875 -42.410156 21.6875 -46.296875 C 21.6875 -47.992188 21.613281 -49.265625 21.46875 -50.109375 C 21.320312 -50.960938 21.046875 -51.550781 20.640625 -51.875 C 20.242188 -52.195312 19.671875 -52.359375 18.921875 -52.359375 L 15.9375 -52.359375 L 15.9375 -40.46875 Z M 19 -40.46875 "/></g></g></g><g fill="#00c2cb" fill-opacity="1"><g transform="translate(116.788789, 316.969272)"><g><path d="M 1.125 0 L 7.328125 -64.25 L 29.09375 -64.25 L 35.234375 0 L 23.03125 0 L 22.140625 -10.390625 L 14.359375 -10.390625 L 13.609375 0 Z M 15.328125 -20.640625 L 21.171875 -20.640625 L 18.328125 -53.328125 L 17.734375 -53.328125 Z M 15.328125 -20.640625 "/></g></g></g><g fill="#00c2cb" fill-opacity="1"><g transform="translate(153.055604, 316.969272)"><g><path d="M 2.84375 0 L 2.84375 -64.25 L 16.078125 -64.25 L 21.984375 -33.515625 L 21.984375 -64.25 L 34.40625 -64.25 L 34.40625 0 L 21.84375 0 L 15.40625 -32.15625 L 15.40625 0 Z M 2.84375 0 "/></g></g></g><g fill="#263749" fill-opacity="1"><g transform="translate(190.286332, 316.969272)"><g><path d="M 8.375 0 L 8.375 -51.90625 L 0.75 -51.90625 L 0.75 -64.25 L 28.875 -64.25 L 28.875 -51.90625 L 21.25 -51.90625 L 21.25 0 Z M 8.375 0 "/></g></g></g><g fill="#263749" fill-opacity="1"><g transform="translate(219.898001, 316.969272)"><g><path d="M 2.84375 0 L 2.84375 -64.25 L 28.578125 -64.25 L 28.578125 -51.828125 L 15.9375 -51.828125 L 15.9375 -39.34375 L 28.046875 -39.34375 L 28.046875 -27.21875 L 15.9375 -27.21875 L 15.9375 -12.484375 L 29.390625 -12.484375 L 29.390625 0 Z M 2.84375 0 "/></g></g></g><g fill="#263749" fill-opacity="1"><g transform="translate(250.706095, 316.969272)"><g><path d="M 17.796875 0.59375 C 13.109375 0.59375 9.351562 -0.875 6.53125 -3.8125 C 3.71875 -6.757812 2.3125 -10.800781 2.3125 -15.9375 L 2.3125 -45.546875 C 2.3125 -51.929688 3.582031 -56.742188 6.125 -59.984375 C 8.675781 -63.222656 12.664062 -64.84375 18.09375 -64.84375 C 22.832031 -64.84375 26.648438 -63.546875 29.546875 -60.953125 C 32.441406 -58.359375 33.890625 -54.617188 33.890625 -49.734375 L 33.890625 -38.671875 L 21.09375 -38.671875 L 21.09375 -48.171875 C 21.09375 -50.015625 20.867188 -51.285156 20.421875 -51.984375 C 19.972656 -52.679688 19.195312 -53.03125 18.09375 -53.03125 C 16.945312 -53.03125 16.160156 -52.628906 15.734375 -51.828125 C 15.316406 -51.035156 15.109375 -49.863281 15.109375 -48.3125 L 15.109375 -16.078125 C 15.109375 -14.378906 15.359375 -13.144531 15.859375 -12.375 C 16.359375 -11.601562 17.101562 -11.21875 18.09375 -11.21875 C 20.09375 -11.21875 21.09375 -12.835938 21.09375 -16.078125 L 21.09375 -27.671875 L 34.03125 -27.671875 L 34.03125 -15.5625 C 34.03125 -4.789062 28.617188 0.59375 17.796875 0.59375 Z M 17.796875 0.59375 "/></g></g></g><g fill="#263749" fill-opacity="1"><g transform="translate(286.150371, 316.969272)"><g><path d="M 2.84375 0 L 2.84375 -64.25 L 15.625 -64.25 L 15.625 -41.28125 L 21.6875 -41.28125 L 21.6875 -64.25 L 34.484375 -64.25 L 34.484375 0 L 21.6875 0 L 21.6875 -29.171875 L 15.625 -29.171875 L 15.625 0 Z M 2.84375 0 "/></g></g></g><g fill="#263749" fill-opacity="1"><g transform="translate(58.028585, 345.977513)"><g><path d="M 7.765625 0.453125 C 6.554688 0.453125 5.367188 0.34375 4.203125 0.125 C 3.035156 -0.0820312 2.082031 -0.363281 1.34375 -0.71875 L 1.34375 -3.46875 C 3.257812 -2.570312 5.328125 -2.125 7.546875 -2.125 C 10.660156 -2.125 12.21875 -3.171875 12.21875 -5.265625 C 12.21875 -5.984375 12.046875 -6.5625 11.703125 -7 C 11.367188 -7.445312 10.878906 -7.832031 10.234375 -8.15625 C 9.597656 -8.488281 8.5625 -8.945312 7.125 -9.53125 C 5.144531 -10.320312 3.71875 -11.195312 2.84375 -12.15625 C 1.96875 -13.113281 1.53125 -14.320312 1.53125 -15.78125 C 1.53125 -16.882812 1.828125 -17.859375 2.421875 -18.703125 C 3.023438 -19.554688 3.863281 -20.21875 4.9375 -20.6875 C 6.019531 -21.15625 7.257812 -21.390625 8.65625 -21.390625 C 9.789062 -21.390625 10.816406 -21.296875 11.734375 -21.109375 C 12.660156 -20.929688 13.5625 -20.644531 14.4375 -20.25 L 14.4375 -17.609375 C 12.695312 -18.390625 10.941406 -18.78125 9.171875 -18.78125 C 7.734375 -18.78125 6.632812 -18.519531 5.875 -18 C 5.113281 -17.476562 4.734375 -16.738281 4.734375 -15.78125 C 4.734375 -15.125 4.894531 -14.570312 5.21875 -14.125 C 5.550781 -13.675781 6.039062 -13.273438 6.6875 -12.921875 C 7.34375 -12.578125 8.304688 -12.144531 9.578125 -11.625 C 11.003906 -11.039062 12.125 -10.488281 12.9375 -9.96875 C 13.757812 -9.457031 14.382812 -8.828125 14.8125 -8.078125 C 15.238281 -7.328125 15.453125 -6.390625 15.453125 -5.265625 C 15.453125 -3.453125 14.800781 -2.046875 13.5 -1.046875 C 12.207031 -0.046875 10.296875 0.453125 7.765625 0.453125 Z M 7.765625 0.453125 "/></g></g></g><g fill="#263749" fill-opacity="1"><g transform="translate(87.10069, 345.977513)"><g><path d="M 12.375 0.453125 C 10.289062 0.453125 8.410156 0 6.734375 -0.90625 C 5.054688 -1.820312 3.738281 -3.109375 2.78125 -4.765625 C 1.820312 -6.421875 1.34375 -8.316406 1.34375 -10.453125 C 1.34375 -12.585938 1.820312 -14.484375 2.78125 -16.140625 C 3.738281 -17.796875 5.054688 -19.082031 6.734375 -20 C 8.410156 -20.925781 10.289062 -21.390625 12.375 -21.390625 C 14.445312 -21.390625 16.320312 -20.925781 18 -20 C 19.675781 -19.082031 20.992188 -17.796875 21.953125 -16.140625 C 22.910156 -14.484375 23.390625 -12.585938 23.390625 -10.453125 C 23.390625 -8.316406 22.910156 -6.421875 21.953125 -4.765625 C 20.992188 -3.109375 19.675781 -1.820312 18 -0.90625 C 16.320312 0 14.445312 0.453125 12.375 0.453125 Z M 12.375 -2.3125 C 13.851562 -2.3125 15.195312 -2.644531 16.40625 -3.3125 C 17.613281 -3.976562 18.566406 -4.925781 19.265625 -6.15625 C 19.960938 -7.382812 20.3125 -8.816406 20.3125 -10.453125 C 20.3125 -12.066406 19.960938 -13.488281 19.265625 -14.71875 C 18.578125 -15.945312 17.632812 -16.894531 16.4375 -17.5625 C 15.238281 -18.238281 13.90625 -18.578125 12.4375 -18.578125 C 10.9375 -18.578125 9.582031 -18.242188 8.375 -17.578125 C 7.164062 -16.921875 6.207031 -15.972656 5.5 -14.734375 C 4.789062 -13.492188 4.4375 -12.066406 4.4375 -10.453125 C 4.4375 -8.816406 4.785156 -7.382812 5.484375 -6.15625 C 6.179688 -4.925781 7.132812 -3.976562 8.34375 -3.3125 C 9.550781 -2.644531 10.894531 -2.3125 12.375 -2.3125 Z M 12.375 -2.3125 "/></g></g></g><g fill="#263749" fill-opacity="1"><g transform="translate(124.105012, 345.977513)"><g><path d="M 1.953125 -20.9375 L 5 -20.9375 L 5 -2.546875 L 15.609375 -2.546875 L 15.609375 0 L 1.953125 0 Z M 1.953125 -20.9375 "/></g></g></g><g fill="#263749" fill-opacity="1"><g transform="translate(152.728135, 345.977513)"><g><path d="M 10.453125 0.453125 C 7.597656 0.453125 5.441406 -0.28125 3.984375 -1.75 C 2.523438 -3.21875 1.796875 -5.238281 1.796875 -7.8125 L 1.796875 -20.9375 L 4.859375 -20.9375 L 4.859375 -7.703125 C 4.859375 -5.921875 5.351562 -4.578125 6.34375 -3.671875 C 7.34375 -2.765625 8.710938 -2.3125 10.453125 -2.3125 C 12.171875 -2.3125 13.53125 -2.765625 14.53125 -3.671875 C 15.53125 -4.578125 16.03125 -5.921875 16.03125 -7.703125 L 16.03125 -20.9375 L 19.078125 -20.9375 L 19.078125 -7.8125 C 19.078125 -5.257812 18.347656 -3.242188 16.890625 -1.765625 C 15.429688 -0.285156 13.285156 0.453125 10.453125 0.453125 Z M 10.453125 0.453125 "/></g></g></g><g fill="#263749" fill-opacity="1"><g transform="translate(185.871113, 345.977513)"><g><path d="M 7.25 -18.359375 L 0.75 -18.359375 L 0.75 -20.9375 L 16.828125 -20.9375 L 16.828125 -18.359375 L 10.328125 -18.359375 L 10.328125 0 L 7.25 0 Z M 7.25 -18.359375 "/></g></g></g><g fill="#263749" fill-opacity="1"><g transform="translate(215.721486, 345.977513)"><g><path d="M 1.953125 -20.9375 L 5.03125 -20.9375 L 5.03125 0 L 1.953125 0 Z M 1.953125 -20.9375 "/></g></g></g><g fill="#263749" fill-opacity="1"><g transform="translate(234.975631, 345.977513)"><g><path d="M 12.375 0.453125 C 10.289062 0.453125 8.410156 0 6.734375 -0.90625 C 5.054688 -1.820312 3.738281 -3.109375 2.78125 -4.765625 C 1.820312 -6.421875 1.34375 -8.316406 1.34375 -10.453125 C 1.34375 -12.585938 1.820312 -14.484375 2.78125 -16.140625 C 3.738281 -17.796875 5.054688 -19.082031 6.734375 -20 C 8.410156 -20.925781 10.289062 -21.390625 12.375 -21.390625 C 14.445312 -21.390625 16.320312 -20.925781 18 -20 C 19.675781 -19.082031 20.992188 -17.796875 21.953125 -16.140625 C 22.910156 -14.484375 23.390625 -12.585938 23.390625 -10.453125 C 23.390625 -8.316406 22.910156 -6.421875 21.953125 -4.765625 C 20.992188 -3.109375 19.675781 -1.820312 18 -0.90625 C 16.320312 0 14.445312 0.453125 12.375 0.453125 Z M 12.375 -2.3125 C 13.851562 -2.3125 15.195312 -2.644531 16.40625 -3.3125 C 17.613281 -3.976562 18.566406 -4.925781 19.265625 -6.15625 C 19.960938 -7.382812 20.3125 -8.816406 20.3125 -10.453125 C 20.3125 -12.066406 19.960938 -13.488281 19.265625 -14.71875 C 18.578125 -15.945312 17.632812 -16.894531 16.4375 -17.5625 C 15.238281 -18.238281 13.90625 -18.578125 12.4375 -18.578125 C 10.9375 -18.578125 9.582031 -18.242188 8.375 -17.578125 C 7.164062 -16.921875 6.207031 -15.972656 5.5 -14.734375 C 4.789062 -13.492188 4.4375 -12.066406 4.4375 -10.453125 C 4.4375 -8.816406 4.785156 -7.382812 5.484375 -6.15625 C 6.179688 -4.925781 7.132812 -3.976562 8.34375 -3.3125 C 9.550781 -2.644531 10.894531 -2.3125 12.375 -2.3125 Z M 12.375 -2.3125 "/></g></g></g><g fill="#263749" fill-opacity="1"><g transform="translate(271.979953, 345.977513)"><g><path d="M 1.953125 -20.9375 L 4.859375 -20.9375 L 15.515625 -5.15625 L 15.515625 -20.9375 L 18.59375 -20.9375 L 18.59375 0 L 15.671875 0 L 5 -15.78125 L 5 0 L 1.953125 0 Z M 1.953125 -20.9375 "/></g></g></g><g fill="#263749" fill-opacity="1"><g transform="translate(304.793665, 345.977513)"><g><path d="M 7.765625 0.453125 C 6.554688 0.453125 5.367188 0.34375 4.203125 0.125 C 3.035156 -0.0820312 2.082031 -0.363281 1.34375 -0.71875 L 1.34375 -3.46875 C 3.257812 -2.570312 5.328125 -2.125 7.546875 -2.125 C 10.660156 -2.125 12.21875 -3.171875 12.21875 -5.265625 C 12.21875 -5.984375 12.046875 -6.5625 11.703125 -7 C 11.367188 -7.445312 10.878906 -7.832031 10.234375 -8.15625 C 9.597656 -8.488281 8.5625 -8.945312 7.125 -9.53125 C 5.144531 -10.320312 3.71875 -11.195312 2.84375 -12.15625 C 1.96875 -13.113281 1.53125 -14.320312 1.53125 -15.78125 C 1.53125 -16.882812 1.828125 -17.859375 2.421875 -18.703125 C 3.023438 -19.554688 3.863281 -20.21875 4.9375 -20.6875 C 6.019531 -21.15625 7.257812 -21.390625 8.65625 -21.390625 C 9.789062 -21.390625 10.816406 -21.296875 11.734375 -21.109375 C 12.660156 -20.929688 13.5625 -20.644531 14.4375 -20.25 L 14.4375 -17.609375 C 12.695312 -18.390625 10.941406 -18.78125 9.171875 -18.78125 C 7.734375 -18.78125 6.632812 -18.519531 5.875 -18 C 5.113281 -17.476562 4.734375 -16.738281 4.734375 -15.78125 C 4.734375 -15.125 4.894531 -14.570312 5.21875 -14.125 C 5.550781 -13.675781 6.039062 -13.273438 6.6875 -12.921875 C 7.34375 -12.578125 8.304688 -12.144531 9.578125 -11.625 C 11.003906 -11.039062 12.125 -10.488281 12.9375 -9.96875 C 13.757812 -9.457031 14.382812 -8.828125 14.8125 -8.078125 C 15.238281 -7.328125 15.453125 -6.390625 15.453125 -5.265625 C 15.453125 -3.453125 14.800781 -2.046875 13.5 -1.046875 C 12.207031 -0.046875 10.296875 0.453125 7.765625 0.453125 Z M 7.765625 0.453125 "/></g></g></g></svg>