<svg xmlns="http://www.w3.org/2000/svg" xmlns:xlink="http://www.w3.org/1999/xlink" viewBox="0 0 2371.38 2398.03"><defs><style>.cls-1{fill:none;}.cls-2{clip-path:url(#clip-path);}.cls-3{fill:#f0d0b4;}.cls-4{fill:#231f20;}.cls-5{fill:#263749;}.cls-6{fill:#1ebec8;}.cls-7{clip-path:url(#clip-path-3);}.cls-8{fill:#fff;}.cls-9{clip-path:url(#clip-path-5);}</style><clipPath id="clip-path" transform="translate(0 805.44)"><rect class="cls-1" x="623.73" width="1123.92" height="1019.61"/></clipPath><clipPath id="clip-path-3" transform="translate(0 805.44)"><path class="cls-1" d="M1209.75,80V942.61h98.8s93.58-.67,140.38-1.33c41.59-.59,80.25-12.31,116.44-32.37,44.29-24.56,78.6-59.35,103.18-103.47C1688.83,769,1700.43,729.6,1700.7,688c.75-115.78.33-231.57.18-347.35a251.83,251.83,0,0,0-20.37-98.7Q1648.38,166,1579,121.43c-39.67-25.54-83.4-40.08-130.49-40.81-39.81-.61-103.3-.76-154.8-.76-47,0-84,.12-84,.12"/></clipPath><clipPath id="clip-path-5" transform="translate(0 805.44)"><rect class="cls-1" y="1060.78" width="2371.38" height="531.81"/></clipPath></defs><g id="Layer_2" data-name="Layer 2"><g id="Layer_1-2" data-name="Layer 1"><g id="Artwork_9" data-name="Artwork 9"><g class="cls-2"><g class="cls-2"><path class="cls-3" d="M864.93,499.27c-12.82,0-25.21,1.74-36.51,8.18-24.38,13.91-34.38,36.13-34.89,63-.54,28.72-.35,57.46.11,86.18.2,12.56,1.24,25.17,7.24,36.77,13.58,26.23,35.48,37.51,64.52,37.49q317.66-.18,635.31-.07c3.45,0,6.9.06,10.35-.05,10.13-.35,20-2,29.09-6.73,27.06-14,37.3-37.61,37.61-66.54q.48-42.68-.06-85.34c-.21-16.23-3.09-31.94-13.15-45.45-14.54-19.52-34.3-27.52-58.27-27.49q-160.33.25-320.67.07-160.33,0-320.68,0m80,190.69c-63.44-19.87-84.63-86.22-68.82-130.64q98.55,29.14,196.18,58.09c1.48.44,2.64,2,3.81,2.91-14.23,53-73.47,87.71-131.17,69.64m415.69-90.58c22.48-6.75,44.94-13.54,67.43-20.22,22.13-6.58,44.3-13,68-20,9.23,35.72,3.79,67-17.51,94.35-25.1,32.26-59.22,45.7-99.55,39.78-48.74-7.16-77.46-44.64-84-73.77,21.3-8,43.62-13.54,65.57-20.12" transform="translate(0 805.44)"/><path class="cls-4" d="M1735.27,258.56c-16.23-57.28-46.67-105.73-90.77-145.37-59.07-53.1-129.11-78.73-208.15-79.35-78.44-.61-156.89-.21-235.34,0-6.61,0-67.83-33.62-72.7-33.63C1064.24-.08,1000.16,0,936.08.05c-23.05,0-45.85,2.28-68.16,8.26C811.47,23.47,764.32,54.1,724.78,96.47c-40.11,43-69,92.61-85.85,149.2C629.6,277,624.18,308.9,624,341.4c-.49,103.44-.23,206.88-.15,310.33,0,15.78.19,31.59,1.06,47.34a330.39,330.39,0,0,0,16.23,85.09,366.88,366.88,0,0,0,48.2,96.53c31.42,44.87,70.34,81.54,118.94,107.43,23.43,12.48,48.17,21.94,74.26,26.27,20,3.31,40.52,4.43,60.84,4.79,42.23.73,84.47.31,126.71.35h18.5l22.5-31.26h15.63q156.46,0,312.92,0a297.69,297.69,0,0,0,86.59-12.63c56.17-17.13,104.35-47.29,143.16-91.42,51.74-58.83,77.49-128.06,77.91-206.21.59-109.76.23-219.53.1-329.29a330.38,330.38,0,0,0-12.15-90.12m-229,240.67c24,0,43.73,8,58.27,27.49,10.06,13.51,12.94,29.22,13.15,45.45q.52,42.66.07,85.33c-.32,28.94-10.56,52.57-37.62,66.55-9.13,4.71-19,6.38-29.09,6.73-3.45.12-6.9.05-10.35.05q-317.65,0-635.31.08c-29,0-50.94-11.27-64.52-37.5-6-11.6-7-24.21-7.24-36.77-.46-28.73-.64-57.46-.11-86.18.51-26.89,10.51-49.1,34.88-63,11.31-6.45,23.7-8.19,36.52-8.18q160.35.08,320.68,0t320.67-.07M733.36,160.13c28.29-38.93,62.84-70.68,106.37-91.86,29.53-14.38,60.59-22,93.76-21.74,59.75.53,179.27,0,179.27,0l48.84,23.26v222.9c-8,6.15-16.61,12.79-25.28,19.3-17.9,13.43-61,46.34-61,46.34l.43,94.35H849.1l-.7-163.21-147.11-75.1a317,317,0,0,1,32.07-54.29M689.28,780.91A319.56,319.56,0,0,1,670.21,670.5c.38-112.34-.21-224.68.39-337a225.71,225.71,0,0,1,13.09-73.1c7.3.27,100.47,46.24,118.46,58.31v150c-14.33,9.8-26.76,21-36.14,35.47-12.21,18.87-17.93,39.57-18.17,61.76-.34,32.46-.28,64.93,0,97.4.15,18.85,4,37,13,53.77,1.45,2.74,2.7,5.58,3.83,7.94l-69.48,69c-1.79-4-4.14-8.43-5.83-13.11m261.06,191.3c-41.71,3.73-80.79-4.58-117.48-23.25C784.07,924.13,747.1,886.5,718.63,840.9l81.21-81.27c24.15,16.71,52.65,18.14,82.45,16.94V820l68.05,41.77Zm125.6-105.46.13,92.26-10.67,13.27H996.6V835.62L929,794.14V776.66h234.72v41.81ZM1700.7,688c-.27,41.62-11.87,81-32.15,117.44-24.58,44.13-58.89,78.92-103.18,103.48-36.19,20.06-74.85,31.78-116.44,32.37-46.79.66-140.38,1.33-140.38,1.33h-8.78l-.26-75.82L1210.92,818v-41.3s304.89.19,313.7-.83c39.19-4.49,67.48-25.2,86.22-59.42,9.31-17,12.6-35.57,12.7-54.71.16-32.17.39-64.36-.08-96.53-.79-54.32-36.78-98.63-90.07-110-7.23-1.54-237.18-1.89-237.18-1.89l.3-95.44s-55.1-41.1-78.77-58.81c-2.73-2-5.32-4.28-8-6.43V80s162.63-.54,238.75.64c47.09.73,90.82,15.27,130.49,40.81Q1648.2,166,1680.51,241.94a251.83,251.83,0,0,1,20.37,98.7c.15,115.78.57,231.57-.18,347.35" transform="translate(0 805.44)"/><path class="cls-5" d="M1680.51,241.94Q1648.38,166,1579,121.43c-39.67-25.54-83.4-40.08-130.49-40.81-76.12-1.18-238.75-.64-238.75-.64V942.61h98.8s93.59-.67,140.38-1.33c41.59-.59,80.25-12.31,116.44-32.38,44.29-24.55,78.6-59.34,103.18-103.46,20.28-36.42,31.88-75.83,32.15-117.45.75-115.78.33-231.56.18-347.35a251.87,251.87,0,0,0-20.37-98.7" transform="translate(0 805.44)"/><path class="cls-6" d="M1161.6,69.84l-48.84-23.26S921.39,46,908.46,47.85a205,205,0,0,0-46.64,11c-111.33,37-191.61,143.45-191.61,267v367c0,115.88,71.52,217.73,172.6,260.8a217.59,217.59,0,0,0,49.81,15.81,271.84,271.84,0,0,0,57,6l117.81-2.46,25.4-31.84h71Z" transform="translate(0 805.44)"/></g><g class="cls-7"><rect class="cls-5" x="324.65" y="231.01" width="1756.15" height="1756.14"/><path class="cls-8" d="M650.22,255A19.14,19.14,0,1,1,631,235.77,19.2,19.2,0,0,1,650.22,255m-31.32,0a12.18,12.18,0,1,0,24.36,0,12.18,12.18,0,1,0-24.36,0" transform="translate(0 805.44)"/><path class="cls-8" d="M712.64,655.53a19.12,19.12,0,1,1-19-19.21,19.16,19.16,0,0,1,19,19.21m-31.28,0a12.24,12.24,0,0,0,12.25,12.21,12.22,12.22,0,0,0,0-24.43,12.23,12.23,0,0,0-12.25,12.22" transform="translate(0 805.44)"/><path class="cls-8" d="M775.24,135.54A19.19,19.19,0,1,1,756,116.33a19.2,19.2,0,0,1,19.21,19.21m-31.42,0A12.23,12.23,0,1,0,756,123.33a12.18,12.18,0,0,0-12.21,12.21" transform="translate(0 805.44)"/><path class="cls-8" d="M650.22,525.66a19.14,19.14,0,1,1-19.07-19.13,19.13,19.13,0,0,1,19.07,19.13m-31.32,0a12.18,12.18,0,1,0,24.36,0,12.18,12.18,0,1,0-24.36,0" transform="translate(0 805.44)"/><path class="cls-8" d="M650.22,768.51a19.14,19.14,0,1,1-19.07-19.21,19.13,19.13,0,0,1,19.07,19.21m-31.32,0a12.18,12.18,0,1,0,24.36,0,12.18,12.18,0,1,0-24.36,0" transform="translate(0 805.44)"/><polygon class="cls-8" points="634.65 0 634.65 469.18 572.05 469.18 572.05 724.99 509.59 724.99 509.59 838.7 440.17 838.7 440.17 775.69 381.21 775.69 381.21 768.73 447.13 768.73 447.13 831.73 502.63 831.73 502.63 718.03 565.09 718.03 565.09 462.22 627.65 462.22 627.65 0 634.65 0"/><polygon class="cls-8" points="634.65 513.12 634.65 791.43 572.05 791.43 572.05 909.55 565.09 909.55 565.09 784.43 627.65 784.43 627.65 513.12 634.65 513.12"/><polygon class="cls-8" points="697.07 1163.38 697.07 1445.25 690.11 1445.25 690.11 1170.37 634.65 1170.37 634.65 1249.74 565.09 1249.74 565.09 1044.43 572.05 1044.43 572.05 1242.82 627.65 1242.82 627.65 1163.38 697.07 1163.38"/><polygon class="cls-8" points="634.65 1346.88 634.65 1427.62 572.05 1427.62 572.05 1481.88 634.51 1481.88 634.51 1558.23 627.51 1558.23 627.51 1488.81 565.09 1488.81 565.09 1420.62 627.65 1420.62 627.65 1346.88 634.65 1346.88"/><polygon class="cls-8" points="821.99 508.15 821.99 644.87 759.53 644.87 759.53 773.12 697.07 773.12 697.07 917.45 634.51 917.45 634.51 1044.43 627.51 1044.43 627.51 910.45 690.11 910.45 690.11 766.15 752.57 766.15 752.57 637.87 815.03 637.87 815.03 515.11 752.57 515.11 752.57 358.57 759.53 358.57 759.53 508.15 821.99 508.15"/><polygon class="cls-8" points="821.99 1110.69 821.99 1312.51 759.53 1312.51 759.53 1507.61 697.07 1507.61 697.07 1751.89 690.11 1751.89 690.11 1500.68 752.57 1500.68 752.57 1305.45 815.03 1305.45 815.03 1117.69 752.57 1117.69 752.57 957.24 759.53 957.24 759.53 1110.69 821.99 1110.69"/><rect class="cls-8" x="752.57" y="1159.53" width="6.96" height="98.51"/><rect class="cls-8" x="1742.63" y="1454.72" width="7" height="294.43"/><path class="cls-8" d="M1765.34,631.86a19.21,19.21,0,1,1-19.21-19.21,19.23,19.23,0,0,1,19.21,19.21m-31.49,0a12.24,12.24,0,1,0,12.28-12.21,12.26,12.26,0,0,0-12.28,12.21" transform="translate(0 805.44)"/><path class="cls-8" d="M1780.91,171.49a19.14,19.14,0,1,1-19.08-19.21,19.13,19.13,0,0,1,19.08,19.21m-31.29,0a12,12,0,0,0,12.21,12.14,12.18,12.18,0,1,0-12.21-12.14" transform="translate(0 805.44)"/><path class="cls-8" d="M1702.84,480.19a19.21,19.21,0,1,1-19.2-19.22,19.11,19.11,0,0,1,19.2,19.22m-31.42,0A12.25,12.25,0,1,0,1683.64,468a12.18,12.18,0,0,0-12.22,12.22" transform="translate(0 805.44)"/><path class="cls-8" d="M1780.91,331.53a19.14,19.14,0,1,1-19.08-19.21,19.19,19.19,0,0,1,19.08,19.21m-31.29,0a12.15,12.15,0,1,0,12.21-12.28,12.2,12.2,0,0,0-12.21,12.28" transform="translate(0 805.44)"/><path class="cls-8" d="M1374.73,683.1a19.11,19.11,0,1,1-19.2-19.14,19.18,19.18,0,0,1,19.2,19.14m-31.28,0a12.18,12.18,0,1,0,24.35,0,12.18,12.18,0,0,0-24.35,0" transform="translate(0 805.44)"/><path class="cls-8" d="M1390.44,782.43a19.18,19.18,0,1,1-19.21-19.14,19.16,19.16,0,0,1,19.21,19.14m-31.42,0a12.25,12.25,0,1,0,12.21-12.21A12.23,12.23,0,0,0,1359,782.43" transform="translate(0 805.44)"/><path class="cls-8" d="M1390.44,600.51a19.18,19.18,0,1,1-19.21-19.21,19.12,19.12,0,0,1,19.21,19.21m-31.42,0a12.18,12.18,0,0,0,12.21,12.14,12.06,12.06,0,0,0,12.28-12.14,12.25,12.25,0,0,0-24.49,0" transform="translate(0 805.44)"/><path class="cls-8" d="M1452.94,603.12a19.14,19.14,0,1,1-19.21-19.22,19.21,19.21,0,0,1,19.21,19.22m-31.28,0a12.14,12.14,0,1,0,12.07-12.22,12.1,12.1,0,0,0-12.07,12.22" transform="translate(0 805.44)"/><path class="cls-8" d="M1452.94,315.82a19.14,19.14,0,1,1-38.28,0,19.14,19.14,0,1,1,38.28,0m-31.28,0a12.14,12.14,0,1,0,12.07-12.21,12.16,12.16,0,0,0-12.07,12.21" transform="translate(0 805.44)"/><path class="cls-8" d="M1515.36,444.79a19.14,19.14,0,1,1-19.21-19.14,19.18,19.18,0,0,1,19.21,19.14m-31.28,0a12.18,12.18,0,1,0,12.07-12.15,12.17,12.17,0,0,0-12.07,12.15" transform="translate(0 805.44)"/><path class="cls-8" d="M1577.78,18.44a19.1,19.1,0,1,1-19-19.2,19.1,19.1,0,0,1,19,19.2m-31.28,0A12.18,12.18,0,1,0,1558.78,6.2a12.23,12.23,0,0,0-12.28,12.24" transform="translate(0 805.44)"/><path class="cls-8" d="M1390.44,2.73a19.18,19.18,0,1,1-19.21-19.2,19.18,19.18,0,0,1,19.21,19.2m-31.42,0a12.25,12.25,0,1,0,12.21-12.24A12.21,12.21,0,0,0,1359,2.73" transform="translate(0 805.44)"/><path class="cls-8" d="M1702.84,69.14a19.21,19.21,0,1,1-19.2-19.21,19.19,19.19,0,0,1,19.2,19.21m-31.42,0a12.25,12.25,0,1,0,12.22-12.25,12.25,12.25,0,0,0-12.22,12.25" transform="translate(0 805.44)"/><path class="cls-8" d="M1640.28,76.1a19.14,19.14,0,1,1-19.07-19.21,19.17,19.17,0,0,1,19.07,19.21m-31.28,0a12.14,12.14,0,1,0,12.21-12.21A12.2,12.2,0,0,0,1609,76.1" transform="translate(0 805.44)"/><path class="cls-8" d="M1640.28,711.57a19.14,19.14,0,1,1-19.07-19.14,19.19,19.19,0,0,1,19.07,19.14m-31.28,0a12.14,12.14,0,1,0,12.21-12.21A12.06,12.06,0,0,0,1609,711.57" transform="translate(0 805.44)"/><rect class="cls-8" x="1680.2" y="1298.72" width="6.93" height="450.42"/><rect class="cls-8" x="1617.71" y="1532.71" width="7" height="216.43"/><polygon class="cls-8" points="1746.13 1133.46 1746.13 1140.47 1624.71 1140.47 1624.71 1391.27 1562.22 1391.27 1562.22 1749.15 1555.28 1749.15 1555.28 1384.27 1617.71 1384.27 1617.71 1133.46 1746.13 1133.46"/><polygon class="cls-8" points="1746.13 973.42 1746.13 980.42 1680.2 980.42 1680.2 917.45 1624.71 917.45 1624.71 1031.12 1562.22 1031.12 1562.22 1286.92 1499.65 1286.92 1499.65 1749.15 1492.65 1749.15 1492.65 1279.93 1555.28 1279.93 1555.28 1024.12 1617.71 1024.12 1617.71 910.45 1687.13 910.45 1687.13 973.42 1746.13 973.42"/><polygon class="cls-8" points="1437.23 1485.11 1437.23 1749.15 1430.22 1749.15 1430.22 1492.03 1371.23 1492.03 1371.23 1485.11 1437.23 1485.11"/><rect class="cls-8" x="1430.22" y="1136.97" width="7" height="258"/><polygon class="cls-8" points="1562.22 839.59 1562.22 964.71 1499.65 964.71 1499.65 1236.02 1492.65 1236.02 1492.65 957.72 1555.29 957.72 1555.29 839.59 1562.22 839.59"/><polygon class="cls-8" points="1749.63 630.57 1749.63 749.07 1687.14 749.07 1687.14 859.27 1680.2 859.27 1680.2 742.08 1742.63 742.08 1742.63 637.56 1621.21 637.56 1621.21 630.57 1749.63 630.57"/><polygon class="cls-8" points="1687.13 683.59 1687.13 719.13 1624.71 719.13 1624.71 865.83 1617.71 865.83 1617.71 712.16 1680.2 712.16 1680.2 683.59 1687.13 683.59"/><rect class="cls-8" x="1367.8" y="1603.58" width="6.93" height="145.57"/><polygon class="cls-8" points="1499.79 704.72 1499.79 838.7 1437.23 838.7 1437.23 983.03 1374.73 983.03 1374.73 1111.24 1312.31 1111.24 1312.31 1234.04 1374.73 1234.04 1374.73 1390.58 1367.81 1390.58 1367.81 1241.03 1305.31 1241.03 1305.31 1104.31 1367.81 1104.31 1367.81 976.03 1430.22 976.03 1430.22 831.73 1492.79 831.73 1492.79 704.72 1499.79 704.72"/><path class="cls-8" d="M1780.91,269.18A19.14,19.14,0,1,1,1761.83,250a19.09,19.09,0,0,1,19.08,19.22m-31.29,0a12.07,12.07,0,0,0,12.21,12.2,12.21,12.21,0,1,0-12.21-12.2" transform="translate(0 805.44)"/><path class="cls-8" d="M1624.71,269.18A19.21,19.21,0,1,1,1605.5,250a19.16,19.16,0,0,1,19.21,19.22m-31.42,0a12.06,12.06,0,0,0,12.21,12.2,12.21,12.21,0,1,0-12.21-12.2" transform="translate(0 805.44)"/><rect class="cls-8" x="1621.21" y="1071.18" width="124.92" height="6.93"/><path class="cls-8" d="M912.3,737.16a19.12,19.12,0,1,1-19-19.21,19.05,19.05,0,0,1,19,19.21m-31.28,0a12.16,12.16,0,0,0,24.32,0,12.16,12.16,0,1,0-24.32,0" transform="translate(0 805.44)"/><path class="cls-8" d="M756.1,737.16A19.19,19.19,0,1,1,736.93,718a19.13,19.13,0,0,1,19.17,19.21m-31.42,0a12.23,12.23,0,0,0,24.46,0,12.23,12.23,0,0,0-24.46,0" transform="translate(0 805.44)"/><rect class="cls-8" x="752.64" y="1539.1" width="124.88" height="7"/><path class="cls-8" d="M815.1,746.21a19.11,19.11,0,1,1-19.21,19.08,19.06,19.06,0,0,1,19.21-19.08m0,31.29a12.18,12.18,0,0,0,0-24.36,12.18,12.18,0,1,0,0,24.36" transform="translate(0 805.44)"/><path class="cls-8" d="M815.1,902.41a19.18,19.18,0,1,1-19.21,19.14,19.12,19.12,0,0,1,19.21-19.14m0,31.42a12.25,12.25,0,0,0,0-24.49,12.25,12.25,0,1,0,0,24.49" transform="translate(0 805.44)"/><rect class="cls-8" x="811.6" y="1586.43" width="6.96" height="124.85"/><path class="cls-8" d="M815.1,25.67a19.21,19.21,0,1,1-19.21,19.22A19.16,19.16,0,0,1,815.1,25.67m0,31.43a12,12,0,0,0,12.14-12.21A12.2,12.2,0,1,0,815.1,57.1" transform="translate(0 805.44)"/><rect class="cls-8" x="811.6" y="709.69" width="6.96" height="124.93"/><path class="cls-8" d="M1305.38,22.52a19.14,19.14,0,1,1-19.21,19.07,19.07,19.07,0,0,1,19.21-19.07m0,31.32a12.16,12.16,0,1,0-12.21-12.25,12.24,12.24,0,0,0,12.21,12.25" transform="translate(0 805.44)"/><path class="cls-8" d="M1305.38,178.75A19.18,19.18,0,1,1,1286.17,198a19.13,19.13,0,0,1,19.21-19.22m0,31.43A12.11,12.11,0,0,0,1317.59,198a12.21,12.21,0,1,0-12.21,12.21" transform="translate(0 805.44)"/><rect class="cls-8" x="1301.95" y="862.74" width="6.93" height="124.89"/><path class="cls-8" d="M1761.83,382.91a19.14,19.14,0,1,1-19.2,19.07,19.1,19.1,0,0,1,19.2-19.07m0,31.28A12.18,12.18,0,1,0,1749.62,402a12.09,12.09,0,0,0,12.21,12.21" transform="translate(0 805.44)"/><path class="cls-8" d="M1761.83,539.11a19.18,19.18,0,1,1-19.2,19.21,19.17,19.17,0,0,1,19.2-19.21m0,31.42A12.09,12.09,0,0,0,1774,558.32a12.18,12.18,0,1,0-12.15,12.21" transform="translate(0 805.44)"/><path class="cls-8" d="M1025.05,255a19.13,19.13,0,1,1-19.07-19.2,19.12,19.12,0,0,1,19.07,19.2m-31.29,0A12.16,12.16,0,1,0,1006,242.76,12.22,12.22,0,0,0,993.76,255" transform="translate(0 805.44)"/><path class="cls-8" d="M1087.5,119.83a19.14,19.14,0,1,1-19.06-19.21,19.16,19.16,0,0,1,19.06,19.21m-31.28,0a12.16,12.16,0,1,0,12.22-12.21,12.21,12.21,0,0,0-12.22,12.21" transform="translate(0 805.44)"/><path class="cls-8" d="M1087.5,223.28a19.14,19.14,0,1,1-19.06-19.21,19.16,19.16,0,0,1,19.06,19.21m-31.28,0a12.16,12.16,0,1,0,12.22-12.21,12.22,12.22,0,0,0-12.22,12.21" transform="translate(0 805.44)"/><path class="cls-8" d="M962.59,655.53a19.13,19.13,0,1,1-19.18-19.21,19.23,19.23,0,0,1,19.18,19.21m-31.29,0a12.16,12.16,0,1,0,12.11-12.22,12.12,12.12,0,0,0-12.11,12.22" transform="translate(0 805.44)"/><path class="cls-8" d="M900.16,135.54A19.21,19.21,0,1,1,881,116.33a19.2,19.2,0,0,1,19.21,19.21m-31.45,0A12.25,12.25,0,1,0,881,123.33a12.2,12.2,0,0,0-12.24,12.21" transform="translate(0 805.44)"/><path class="cls-8" d="M1025.05,525.66a19.13,19.13,0,1,1-19.21-19.13,19.2,19.2,0,0,1,19.21,19.13m-31.29,0a12.16,12.16,0,1,0,12.08-12.21,12.16,12.16,0,0,0-12.08,12.21" transform="translate(0 805.44)"/><path class="cls-8" d="M1025.05,768.51a19.13,19.13,0,1,1-19.21-19.21,19.2,19.2,0,0,1,19.21,19.21m-31.29,0a12.16,12.16,0,1,0,12.08-12.22,12.16,12.16,0,0,0-12.08,12.22" transform="translate(0 805.44)"/><path class="cls-8" d="M1212.53,69.14a19.2,19.2,0,1,1-19.17-19.21,19.21,19.21,0,0,1,19.17,19.21m-31.42,0a12.23,12.23,0,1,0,12.25-12.25,12.27,12.27,0,0,0-12.25,12.25" transform="translate(0 805.44)"/><path class="cls-8" d="M1134.39,309.64a19.21,19.21,0,1,1-19.2-19.2,19.24,19.24,0,0,1,19.2,19.2m-31.45,0a12.23,12.23,0,1,0,12.25-12.21,12.25,12.25,0,0,0-12.25,12.21" transform="translate(0 805.44)"/><path class="cls-8" d="M1212.39,363.91a19.13,19.13,0,1,1-19-19.21,19.16,19.16,0,0,1,19,19.21m-31.28,0a12.16,12.16,0,1,0,24.32,0,12.16,12.16,0,1,0-24.32,0" transform="translate(0 805.44)"/><path class="cls-8" d="M1150,605.51a19.14,19.14,0,1,1-19.08-19.2,19.18,19.18,0,0,1,19.08,19.2m-31.32,0a12.18,12.18,0,1,0,24.35,0,12.18,12.18,0,1,0-24.35,0" transform="translate(0 805.44)"/><path class="cls-8" d="M1212.39,705a19.13,19.13,0,1,1-19-19.22,19.16,19.16,0,0,1,19,19.22m-31.28,0a12.16,12.16,0,1,0,12.25-12.22A12.23,12.23,0,0,0,1181.11,705" transform="translate(0 805.44)"/><path class="cls-8" d="M1087.5,928a19.14,19.14,0,1,1-19.06-19.21A19.16,19.16,0,0,1,1087.5,928m-31.28,0a12.16,12.16,0,1,0,12.22-12.21A12.26,12.26,0,0,0,1056.22,928" transform="translate(0 805.44)"/><path class="cls-8" d="M1275,341a19.19,19.19,0,1,1-19.21-19.2A19.19,19.19,0,0,1,1275,341m-31.42,0a12.21,12.21,0,1,0,12.21-12.2,12.18,12.18,0,0,0-12.21,12.2" transform="translate(0 805.44)"/><path class="cls-8" d="M1275,858.85a19.19,19.19,0,1,1-19.21-19.2,19.18,19.18,0,0,1,19.21,19.2m-31.42,0a12.21,12.21,0,1,0,12.21-12.2,12.18,12.18,0,0,0-12.21,12.2" transform="translate(0 805.44)"/><path class="cls-8" d="M1212.39,275.83a19.13,19.13,0,1,1-19-19.22,19.16,19.16,0,0,1,19,19.22m-31.28,0a12.16,12.16,0,1,0,12.25-12.21,12.22,12.22,0,0,0-12.25,12.21" transform="translate(0 805.44)"/><path class="cls-8" d="M1150,62.18A19.14,19.14,0,1,1,1130.89,43,19.15,19.15,0,0,1,1150,62.18m-31.32,0a12.18,12.18,0,1,0,12.24-12.25,12.26,12.26,0,0,0-12.24,12.25" transform="translate(0 805.44)"/><polygon class="cls-8" points="1255.78 768.73 1255.78 775.69 1196.82 775.69 1196.82 838.7 1127.4 838.7 1127.4 724.99 1064.97 724.99 1064.97 469.18 1002.38 469.18 1002.38 0 1009.34 0 1009.34 462.22 1071.94 462.22 1071.94 718.03 1134.39 718.03 1134.39 831.73 1189.86 831.73 1189.86 768.73 1255.78 768.73"/><polygon class="cls-8" points="1071.94 784.43 1071.94 909.55 1064.97 909.55 1064.97 791.43 1002.37 791.43 1002.37 513.12 1009.34 513.12 1009.34 784.43 1071.94 784.43"/><polygon class="cls-8" points="1259.28 1000.11 1259.28 1118.58 1130.89 1118.58 1130.89 1111.58 1252.28 1111.58 1252.28 1007.04 1189.86 1007.04 1189.86 889.87 1196.82 889.87 1196.82 1000.11 1259.28 1000.11"/><polygon class="cls-8" points="1196.82 1030.02 1196.82 1065.56 1189.86 1065.56 1189.86 1037.02 1127.4 1037.02 1127.4 883.32 1134.39 883.32 1134.39 1030.02 1196.82 1030.02"/><polygon class="cls-8" points="1071.94 1044.43 1071.94 1249.74 1002.37 1249.74 1002.37 1170.37 946.88 1170.37 946.88 1445.25 939.91 1445.25 939.91 1163.38 1009.34 1163.38 1009.34 1242.82 1064.97 1242.82 1064.97 1044.43 1071.94 1044.43"/><polygon class="cls-8" points="1071.94 1420.62 1071.94 1488.81 1009.48 1488.81 1009.48 1558.23 1002.51 1558.23 1002.51 1481.88 1064.97 1481.88 1064.97 1427.62 1002.37 1427.62 1002.37 1346.88 1009.34 1346.88 1009.34 1420.62 1071.94 1420.62"/><polygon class="cls-8" points="1259.28 1163.17 1259.28 1334.6 1196.82 1334.6 1196.82 1457.47 1259.28 1457.47 1259.28 1648.58 1252.28 1648.58 1252.28 1464.46 1189.86 1464.46 1189.86 1327.67 1252.28 1327.67 1252.28 1163.17 1259.28 1163.17"/><polygon class="cls-8" points="1196.82 1185.05 1196.82 1294.95 1134.39 1294.95 1134.39 1396.41 1127.4 1396.41 1127.4 1287.96 1189.86 1287.96 1189.86 1185.05 1196.82 1185.05"/><polygon class="cls-8" points="1196.82 1526.13 1196.82 1630.19 1127.4 1630.19 1127.4 1579.91 1071.94 1579.91 1071.94 1713.61 1064.97 1713.61 1064.97 1572.91 1134.39 1572.91 1134.39 1623.27 1189.86 1623.27 1189.86 1526.13 1196.82 1526.13"/><polygon class="cls-8" points="1009.48 910.45 1009.48 1044.43 1002.51 1044.43 1002.51 917.45 939.91 917.45 939.91 773.12 877.46 773.12 877.46 644.87 815.03 644.87 815.03 508.15 877.46 508.15 877.46 358.57 884.45 358.57 884.45 515.11 821.99 515.11 821.99 637.87 884.45 637.87 884.45 766.15 946.88 766.15 946.88 910.45 1009.48 910.45"/><polygon class="cls-8" points="946.88 1499.92 946.88 1750.79 939.91 1750.79 939.91 1506.86 877.46 1506.86 877.46 1312.03 815.03 1312.03 815.03 1110.49 877.46 1110.49 877.46 957.24 884.45 957.24 884.45 1117.41 821.99 1117.41 821.99 1304.97 884.45 1304.97 884.45 1499.92 946.88 1499.92"/><rect class="cls-8" x="877.46" y="1159.53" width="7" height="98.51"/><path class="cls-8" d="M775.17,471.81a19.12,19.12,0,1,1-19.07-19.2,19.12,19.12,0,0,1,19.07,19.2m-31.28,0a12.16,12.16,0,1,0,12.21-12.28,12.27,12.27,0,0,0-12.21,12.28" transform="translate(0 805.44)"/><path class="cls-8" d="M900.09,471.81A19.14,19.14,0,1,1,881,452.61a19.12,19.12,0,0,1,19.07,19.2m-31.31,0A12.18,12.18,0,1,0,881,459.53a12.3,12.3,0,0,0-12.24,12.28" transform="translate(0 805.44)"/><path class="cls-8" d="M900.09,335.09A19.14,19.14,0,1,1,881,315.89a19.06,19.06,0,0,1,19.07,19.2m-31.31,0A12.18,12.18,0,1,0,881,322.82a12.3,12.3,0,0,0-12.24,12.27" transform="translate(0 805.44)"/><path class="cls-8" d="M775.17,335.09a19.12,19.12,0,1,1-19.07-19.2,19.06,19.06,0,0,1,19.07,19.2m-31.28,0a12.16,12.16,0,1,0,12.21-12.27,12.27,12.27,0,0,0-12.21,12.27" transform="translate(0 805.44)"/></g><g class="cls-2"><rect class="cls-3" x="769.59" y="1280.96" width="832.19" height="279.09" rx="89.1"/><path class="cls-4" d="M1512.68,499.23a65.59,65.59,0,0,1,65.4,65.4V665.51a65.58,65.58,0,0,1-65.4,65.39h-654a65.58,65.58,0,0,1-65.39-65.39V564.63a65.59,65.59,0,0,1,65.39-65.4h654m0-47.41h-654A112.94,112.94,0,0,0,745.88,564.63V665.51A112.94,112.94,0,0,0,858.69,778.32h654a112.93,112.93,0,0,0,112.81-112.81V564.63a112.93,112.93,0,0,0-112.81-112.81" transform="translate(0 805.44)"/><path class="cls-4" d="M876.1,559.32c-15.81,44.43,5.38,110.77,68.82,130.64,57.7,18.06,116.94-16.66,131.17-69.65-1.17-.92-2.33-2.45-3.81-2.89q-97.83-29.08-196.18-58.1m84.76,102.25c-28.84-5.76-52.36-32.35-53.55-60.34,6.23-1.13,106.34,27.23,120.41,34.11-5.7,15.19-34.39,32.71-66.86,26.23" transform="translate(0 805.44)"/><path class="cls-4" d="M1379,693.27c40.32,5.92,74.45-7.52,99.55-39.78,21.3-27.36,26.74-58.63,17.51-94.35-23.74,7-45.91,13.44-68,20-22.49,6.68-45,13.47-67.43,20.22-21.95,6.58-44.27,12.07-65.57,20.12,6.52,29.13,35.24,66.61,84,73.77m82.15-94.34c2.7,19.48-15.33,53.59-51.18,62.4-28.92,7.1-60.61-7.88-68.76-26.7l119.94-35.7" transform="translate(0 805.44)"/><path class="cls-6" d="M907.31,601.23c1.19,28,24.7,54.58,53.55,60.34,32.47,6.48,61.16-11,66.86-26.23-14.07-6.88-114.18-35.24-120.41-34.11" transform="translate(0 805.44)"/><path class="cls-8" d="M1410,661.33c35.86-8.81,53.9-42.92,51.19-62.4l-119.94,35.7c8.15,18.82,39.84,33.8,68.75,26.7" transform="translate(0 805.44)"/></g></g></g><g id="Artwork_7" data-name="Artwork 7"><g class="cls-9"><g class="cls-9"><path class="cls-5" d="M0,1553.3l15.79-9.47q16.68,30.69,38.53,30.7a36.9,36.9,0,0,0,17.57-4.37,30.74,30.74,0,0,0,12.5-11.68,30.16,30.16,0,0,0,4.3-15.54q0-9.35-6.32-18.32-8.72-12.37-31.84-29.81t-28.93-25.4q-9.84-13.14-9.85-28.42a43.22,43.22,0,0,1,5.81-22.12,41.47,41.47,0,0,1,16.37-15.73,47.11,47.11,0,0,1,22.92-5.74,49,49,0,0,1,24.58,6.5q11.41,6.51,24.19,23.95l-15.16,11.49Q80,1425.44,72.58,1421a30.84,30.84,0,0,0-16.11-4.42q-11.23,0-18.38,6.83a22.31,22.31,0,0,0-7.14,16.8A28.57,28.57,0,0,0,33.48,1452q2.52,5.68,9.22,12.38,3.66,3.54,24,18.57,24.12,17.82,33.1,31.71t9,27.92q0,20.22-15.35,35.12t-37.34,14.91a54.77,54.77,0,0,1-30.7-9q-13.77-9-25.39-30.26" transform="translate(0 805.44)"/><path class="cls-5" d="M365.94,1397.4q42.22,0,70.67,28.17t28.44,69.36q0,40.82-28.38,69.24t-69.21,28.42q-41.34,0-69.79-28.29t-28.44-68.48a99.07,99.07,0,0,1,12.95-49.65,95.73,95.73,0,0,1,83.76-48.77m.82,18.06a79.43,79.43,0,0,0-68,39.71,80.57,80.57,0,0,0-10.37,40.59q0,33.12,23,56t55.36,22.81A79.58,79.58,0,0,0,406.81,1564a75.25,75.25,0,0,0,28.73-28.71,80.67,80.67,0,0,0,10.31-40.46,78.74,78.74,0,0,0-10.31-40,77.08,77.08,0,0,0-29-28.63,78.6,78.6,0,0,0-39.74-10.76" transform="translate(0 805.44)"/><polygon class="cls-5" points="631.7 2207.51 650.27 2207.51 650.27 2375.41 721.78 2375.41 721.78 2393.35 631.7 2393.35 631.7 2207.51"/><path class="cls-5" d="M881.21,1402.07h18.57v112.19q0,20,.76,24.89,1.4,11,6.45,18.38t15.53,12.38a48.68,48.68,0,0,0,21.1,5,41.66,41.66,0,0,0,17.69-3.92,39.48,39.48,0,0,0,14.15-10.86,44.46,44.46,0,0,0,8.34-16.81q1.89-7.07,1.9-29.06V1402.07h18.56v112.19q0,24.9-4.86,40.24T980,1581.22q-14.6,11.37-35.32,11.37-22.49,0-38.53-10.74t-21.48-28.42q-3.4-10.87-3.41-39.17Z" transform="translate(0 805.44)"/><rect class="cls-5" x="1416.26" y="2207.51" width="18.57" height="185.84"/><path class="cls-5" d="M1695.27,1397.4q42.24,0,70.67,28.17t28.45,69.36q0,40.82-28.38,69.24t-69.22,28.42q-41.34,0-69.78-28.29t-28.45-68.48a99,99,0,0,1,13-49.65,95.7,95.7,0,0,1,83.75-48.77m.83,18.06a79.43,79.43,0,0,0-68,39.71,80.57,80.57,0,0,0-10.37,40.59q0,33.12,23,56t55.37,22.81a79.58,79.58,0,0,0,40.05-10.48,75.22,75.22,0,0,0,28.72-28.71,80.57,80.57,0,0,0,10.31-40.46q0-22.12-10.31-40a77,77,0,0,0-29-28.63,78.57,78.57,0,0,0-39.73-10.76" transform="translate(0 805.44)"/><polygon class="cls-5" points="1961.16 2393.35 1961.16 2207.51 1965.2 2207.51 2088.89 2349.97 2088.89 2207.51 2107.2 2207.51 2107.2 2393.35 2103.03 2393.35 1980.36 2252.63 1980.36 2393.35 1961.16 2393.35"/><path class="cls-5" d="M2262.6,1553.3l15.79-9.47q16.68,30.69,38.53,30.7a36.86,36.86,0,0,0,17.56-4.37,30.7,30.7,0,0,0,12.51-11.68,30.26,30.26,0,0,0,4.3-15.54q0-9.35-6.32-18.32-8.71-12.37-31.83-29.81t-28.94-25.4q-9.85-13.14-9.85-28.42a43.12,43.12,0,0,1,5.81-22.12,41.58,41.58,0,0,1,16.36-15.73,47.18,47.18,0,0,1,22.93-5.74,48.93,48.93,0,0,1,24.57,6.5q11.43,6.51,24.2,23.95l-15.16,11.49q-10.5-13.9-17.88-18.32a30.87,30.87,0,0,0-16.11-4.42q-11.25,0-18.38,6.83a22.31,22.31,0,0,0-7.14,16.8,28.57,28.57,0,0,0,2.53,11.75q2.52,5.68,9.22,12.38,3.66,3.54,24,18.57,24.12,17.82,33.1,31.71t9,27.92q0,20.22-15.36,35.12t-37.33,14.91a54.77,54.77,0,0,1-30.7-9q-13.77-9-25.39-30.26" transform="translate(0 805.44)"/><polygon class="cls-5" points="1160.93 2207.51 1160.93 2225.7 1202.36 2225.7 1202.36 2313.85 1202.36 2393.35 1221.32 2393.35 1221.32 2299.11 1221.32 2225.7 1262.76 2225.7 1262.76 2207.51 1160.93 2207.51"/><polygon class="cls-6" points="164.91 2191.42 78.28 2191.42 78.28 1941.65 0 1941.65 0 1870.82 242.97 1870.82 242.97 1941.65 164.91 1941.65 164.91 2191.42"/><path class="cls-6" d="M375.42,1269.33V1386H288.81V1065.39h105q130.7,0,130.7,94.73,0,55.7-54.39,86.18L563.57,1386H465.33l-68-116.65Zm0-65.14h16.23q45.39,0,45.39-40.12,0-33.12-44.52-33.12h-17.1Z" transform="translate(0 805.44)"/><path class="cls-6" d="M789.44,1386l-15.79-60.08H669.49L653.26,1386H558.09l104.6-321.91H778.25L884.17,1386Zm-33.78-131.13-13.81-52.63q-4.83-17.54-11.73-45.39t-9.1-39.91q-2,11.17-7.79,36.84t-25.76,101.09Z" transform="translate(0 805.44)"/><path class="cls-6" d="M1224.06,1386H1110.47l-117.1-225.86h-2q4.17,53.28,4.17,81.35V1386H918.82v-320.6H1032l116.66,222.8h1.31q-3.07-48.47-3.07-77.85V1065.38h77.19Z" transform="translate(0 805.44)"/><polygon class="cls-5" points="1434.8 2191.42 1348.18 2191.42 1348.18 1941.65 1269.9 1941.65 1269.9 1870.82 1512.87 1870.82 1512.87 1941.65 1434.8 1941.65 1434.8 2191.42"/><polygon class="cls-5" points="1749.04 2191.42 1558.7 2191.42 1558.7 1870.82 1749.04 1870.82 1749.04 1940.34 1645.31 1940.34 1645.31 1990.77 1741.36 1990.77 1741.36 2060.29 1645.31 2060.29 1645.31 2120.81 1749.04 2120.81 1749.04 2191.42"/><path class="cls-5" d="M1947.93,1131.83q-30.92,0-48.24,25.33T1882.37,1227q0,92.55,70.39,92.54a144,144,0,0,0,41.22-5.92,412.39,412.39,0,0,0,40.13-14.26v73.25q-40.12,17.76-90.78,17.76-72.58,0-111.29-42.1t-38.71-121.71q0-49.77,18.75-87.49t54-58q35.19-20.29,82.78-20.29a228,228,0,0,1,99.34,22.59l-26.54,68.19a299,299,0,0,0-35.52-14,124.23,124.23,0,0,0-38.16-5.7" transform="translate(0 805.44)"/><polygon class="cls-5" points="2371.38 2191.42 2284.32 2191.42 2284.32 2060.72 2183.66 2060.72 2183.66 2191.42 2096.61 2191.42 2096.61 1870.82 2183.66 1870.82 2183.66 1989.68 2284.32 1989.68 2284.32 1870.82 2371.38 1870.82 2371.38 2191.42"/></g></g></g></g></g></svg>