<svg xmlns="http://www.w3.org/2000/svg" viewBox="0 0 764.47 171.44"><defs><style>.cls-1{fill:#231f20;}.cls-2{fill:#29b0e6;}.cls-3{fill:#315468;}</style></defs><g id="Layer_2" data-name="Layer 2"><g id="Layer_1-2" data-name="Layer 1"><path class="cls-1" d="M0,158.78l5.09-3.06q5.39,9.9,12.42,9.9a11.84,11.84,0,0,0,5.66-1.41,9.94,9.94,0,0,0,4-3.76,9.8,9.8,0,0,0,1.38-5,10.16,10.16,0,0,0-2-5.91q-2.81-4-10.26-9.61T7,131.73a15,15,0,0,1-3.17-9.16,13.91,13.91,0,0,1,1.87-7.13,13.43,13.43,0,0,1,5.28-5.07,15.12,15.12,0,0,1,7.39-1.85,15.85,15.85,0,0,1,7.92,2.09q3.69,2.1,7.8,7.72L29.16,122q-3.37-4.49-5.76-5.91a9.93,9.93,0,0,0-5.19-1.42,8.21,8.21,0,0,0-5.93,2.2,7.16,7.16,0,0,0-2.3,5.41,9.26,9.26,0,0,0,.81,3.79,14,14,0,0,0,3,4q1.17,1.14,7.74,6,7.77,5.74,10.67,10.22a16.55,16.55,0,0,1,2.89,9,15.29,15.29,0,0,1-4.95,11.33,16.65,16.65,0,0,1-12,4.8,17.64,17.64,0,0,1-9.89-2.91Q3.75,165.62,0,158.78"/><path class="cls-1" d="M118,108.52q13.61,0,22.78,9.08a31.82,31.82,0,0,1,0,44.68,30.33,30.33,0,0,1-22.31,9.16A30.67,30.67,0,0,1,96,162.32a30,30,0,0,1-9.17-22.08,31.85,31.85,0,0,1,4.18-16,30.3,30.3,0,0,1,11.39-11.55A30.66,30.66,0,0,1,118,108.52m.26,5.82a24.67,24.67,0,0,0-12.6,3.47,24.93,24.93,0,0,0-9.3,9.33A25.93,25.93,0,0,0,93,140.22a25.22,25.22,0,0,0,25.25,25.4,25.72,25.72,0,0,0,12.92-3.38,24.3,24.3,0,0,0,9.26-9.26,26,26,0,0,0,3.32-13,25.4,25.4,0,0,0-3.32-12.9,24.8,24.8,0,0,0-9.37-9.23,25.32,25.32,0,0,0-12.81-3.47"/><polygon class="cls-1" points="203.64 110.03 209.63 110.03 209.63 164.15 232.68 164.15 232.68 169.94 203.64 169.94 203.64 110.03"/><path class="cls-1" d="M284.08,110h6v36.17a76,76,0,0,0,.24,8,13.26,13.26,0,0,0,2.08,5.93,12.13,12.13,0,0,0,5,4,15.72,15.72,0,0,0,6.8,1.61,13.45,13.45,0,0,0,5.7-1.26,12.67,12.67,0,0,0,4.56-3.5,14.23,14.23,0,0,0,2.69-5.42q.62-2.28.61-9.37V110h6v36.17a43.87,43.87,0,0,1-1.57,13,17.62,17.62,0,0,1-6.27,8.62,18,18,0,0,1-11.38,3.66A21.81,21.81,0,0,1,292.1,168a16.72,16.72,0,0,1-6.92-9.16q-1.1-3.51-1.1-12.63Z"/><rect class="cls-1" x="456.57" y="110.02" width="5.99" height="59.91"/><path class="cls-1" d="M546.51,108.52q13.62,0,22.79,9.08a31.82,31.82,0,0,1,0,44.68A30.34,30.34,0,0,1,547,171.44a30.66,30.66,0,0,1-22.49-9.12,30,30,0,0,1-9.17-22.08,32,32,0,0,1,4.17-16,30.83,30.83,0,0,1,27-15.72m.27,5.82a25.6,25.6,0,0,0-21.91,12.8,25.93,25.93,0,0,0-3.34,13.08,25.2,25.2,0,0,0,25.25,25.4,25.69,25.69,0,0,0,12.91-3.38A24.23,24.23,0,0,0,569,153a26,26,0,0,0,3.32-13A25.3,25.3,0,0,0,569,127a24.84,24.84,0,0,0-9.36-9.23,25.37,25.37,0,0,0-12.81-3.47"/><polygon class="cls-1" points="632.23 169.94 632.23 110.03 633.53 110.03 673.4 155.95 673.4 110.03 679.31 110.03 679.31 169.94 677.97 169.94 638.42 124.57 638.42 169.94 632.23 169.94"/><path class="cls-1" d="M729.41,158.78l5.09-3.06q5.37,9.9,12.42,9.9a11.87,11.87,0,0,0,5.66-1.41,9.92,9.92,0,0,0,4-3.76,9.82,9.82,0,0,0,1.39-5,10.16,10.16,0,0,0-2-5.91q-2.81-4-10.26-9.61t-9.33-8.19a15,15,0,0,1-3.18-9.16,13.91,13.91,0,0,1,1.88-7.13,13.4,13.4,0,0,1,5.27-5.07,15.15,15.15,0,0,1,7.39-1.85,15.79,15.79,0,0,1,7.92,2.09q3.69,2.1,7.8,7.72L758.57,122q-3.39-4.49-5.77-5.91a9.91,9.91,0,0,0-5.19-1.42,8.22,8.22,0,0,0-5.93,2.2,7.19,7.19,0,0,0-2.3,5.41,9.11,9.11,0,0,0,.82,3.79,13.78,13.78,0,0,0,3,4q1.19,1.14,7.74,6,7.79,5.74,10.67,10.22a16.47,16.47,0,0,1,2.89,9,15.29,15.29,0,0,1-5,11.33,16.64,16.64,0,0,1-12,4.8,17.67,17.67,0,0,1-9.9-2.91q-4.44-2.91-8.18-9.75"/><polygon class="cls-1" points="374.25 110.03 374.25 115.89 387.61 115.89 387.61 144.31 387.61 169.94 393.72 169.94 393.72 139.55 393.72 115.89 407.08 115.89 407.08 110.03 374.25 110.03"/><path class="cls-2" d="M53.16,104.84H25.24V24.32H0V1.48H78.33V24.32H53.16Z"/><path class="cls-2" d="M121,67.23v37.61H93.1V1.48H127q42.12,0,42.13,30.54,0,18-17.53,27.79l30.11,45H150L128.1,67.23Zm0-21h5.23q14.62,0,14.63-12.93,0-10.68-14.35-10.68H121Z"/><path class="cls-2" d="M254.49,104.84,249.4,85.47H215.83l-5.24,19.37H179.91L213.63,1.06h37.26L285,104.84ZM243.61,62.56l-4.46-17q-1.54-5.66-3.78-14.64T232.44,18.1q-.65,3.6-2.51,11.87t-8.31,32.59Z"/><path class="cls-2" d="M394.61,104.84H358L320.24,32h-.64Q321,49.21,321,58.25v46.59H296.2V1.48h36.48l37.61,71.83h.42q-1-15.63-1-25.1V1.48h24.89Z"/><path class="cls-3" d="M462.54,104.84H434.62V24.32H409.38V1.48h78.33V24.32H462.54Z"/><path class="cls-3" d="M563.85,104.84H502.48V1.48h61.37V23.89H530.41V40.15h31V62.56h-31V82.07h33.44Z"/><path class="cls-3" d="M628,22.9a17.82,17.82,0,0,0-15.55,8.17q-5.58,8.16-5.58,22.51,0,29.83,22.69,29.84a46.58,46.58,0,0,0,13.29-1.91,130.33,130.33,0,0,0,12.94-4.6v23.61a71.57,71.57,0,0,1-29.27,5.73q-23.4,0-35.88-13.57T578.13,53.44q0-16,6-28.2a43.26,43.26,0,0,1,17.39-18.7Q612.92,0,628.25,0a73.56,73.56,0,0,1,32,7.28l-8.55,22a97.83,97.83,0,0,0-11.45-4.53A40.23,40.23,0,0,0,628,22.9Z"/><path class="cls-3" d="M764.47,104.84H736.41V62.7H704v42.14H675.89V1.48H704V39.8h32.45V1.48h28.06Z"/></g></g></svg>