<svg xmlns="http://www.w3.org/2000/svg" xmlns:xlink="http://www.w3.org/1999/xlink" viewBox="0 0 2498.21 556.87"><defs><style>.cls-1{fill:none;}.cls-2{clip-path:url(#clip-path);}.cls-3{fill:#263749;}.cls-4{fill:#1ebec8;}</style><clipPath id="clip-path" transform="translate(0 0)"><rect class="cls-1" width="2498.21" height="556.87"/></clipPath></defs><g id="Layer_2" data-name="Layer 2"><g id="Layer_1-2" data-name="Layer 1"><g id="Artwork_7" data-name="Artwork 7"><g class="cls-2"><g class="cls-2"><path class="cls-3" d="M82.33,516.84l16.09-9.65q17,31.27,39.25,31.27A37.61,37.61,0,0,0,155.56,534a31.47,31.47,0,0,0,12.75-11.9,30.91,30.91,0,0,0,4.37-15.84q0-9.52-6.43-18.66-8.88-12.62-32.44-30.37t-29.47-25.88q-10.05-13.38-10-29a43.92,43.92,0,0,1,5.92-22.52,42.19,42.19,0,0,1,16.67-16A48.06,48.06,0,0,1,140.25,358a49.79,49.79,0,0,1,25,6.63q11.64,6.63,24.65,24.39l-15.45,11.71q-10.68-14.16-18.21-18.66a31.33,31.33,0,0,0-16.41-4.51q-11.46,0-18.73,7a22.73,22.73,0,0,0-7.27,17.11,29.26,29.26,0,0,0,2.57,12q2.58,5.81,9.4,12.61,3.73,3.61,24.46,18.93,24.59,18.15,33.72,32.3t9.14,28.45q0,20.6-15.64,35.78t-38,15.19a55.8,55.8,0,0,1-31.27-9.2q-14-9.21-25.87-30.83" transform="translate(0 0)"/><path class="cls-3" d="M455.13,358q43,0,72,28.7t29,70.66q0,41.58-28.92,70.54t-70.51,29q-42.12,0-71.1-28.83t-29-69.76a100.88,100.88,0,0,1,13.2-50.59A97.51,97.51,0,0,1,455.13,358m.84,18.4a78,78,0,0,0-39.83,11,78.8,78.8,0,0,0-29.4,29.49,82,82,0,0,0-10.57,41.35q0,33.75,23.4,57T456,538.46a81,81,0,0,0,40.8-10.69A76.49,76.49,0,0,0,526,498.53a82.17,82.17,0,0,0,10.5-41.22q0-22.55-10.5-40.77a78.51,78.51,0,0,0-29.59-29.17,80.07,80.07,0,0,0-40.48-11" transform="translate(0 0)"/><polygon class="cls-3" points="725.88 362.77 744.8 362.77 744.8 533.83 817.65 533.83 817.65 552.11 725.88 552.11 725.88 362.77"/><path class="cls-3" d="M980.08,362.77H999v114.3q0,20.34.77,25.35,1.41,11.2,6.57,18.73t15.83,12.61a49.57,49.57,0,0,0,21.49,5.09,42.31,42.31,0,0,0,18-4,39.9,39.9,0,0,0,14.41-11.06,45.07,45.07,0,0,0,8.5-17.12q1.94-7.2,1.93-29.6V362.77h18.92v114.3q0,25.35-5,41t-19.83,27.22q-14.85,11.6-36,11.59-22.9,0-39.26-10.94t-21.88-29q-3.46-11.07-3.47-39.9Z" transform="translate(0 0)"/><rect class="cls-3" x="1525.17" y="362.77" width="18.92" height="189.33"/><path class="cls-3" d="M1809.42,358q43,0,72,28.7t29,70.66q0,41.58-28.92,70.54t-70.51,29q-42.12,0-71.1-28.83t-29-69.76a100.88,100.88,0,0,1,13.2-50.59A97.51,97.51,0,0,1,1809.42,358m.84,18.4a78,78,0,0,0-39.84,11,78.87,78.87,0,0,0-29.4,29.49,82.08,82.08,0,0,0-10.56,41.35q0,33.75,23.39,57t56.41,23.25a81,81,0,0,0,40.8-10.69,76.53,76.53,0,0,0,29.26-29.24,82.08,82.08,0,0,0,10.51-41.22q0-22.55-10.51-40.77a78.48,78.48,0,0,0-29.58-29.17,80.07,80.07,0,0,0-40.48-11" transform="translate(0 0)"/><polygon class="cls-3" points="2080.29 552.11 2080.29 362.77 2084.41 362.77 2210.42 507.91 2210.42 362.77 2229.08 362.77 2229.08 552.11 2224.83 552.11 2099.86 408.74 2099.86 552.11 2080.29 552.11"/><path class="cls-3" d="M2387.39,516.84l16.09-9.65q17,31.27,39.26,31.27a37.61,37.61,0,0,0,17.89-4.44,31.5,31.5,0,0,0,12.74-11.9,30.92,30.92,0,0,0,4.38-15.84q0-9.52-6.43-18.66-8.9-12.62-32.44-30.37t-29.48-25.88q-10-13.38-10-29a43.93,43.93,0,0,1,5.93-22.52,42.23,42.23,0,0,1,16.66-16,48.09,48.09,0,0,1,23.36-5.85,49.8,49.8,0,0,1,25,6.63Q2482,371.27,2495,389l-15.44,11.71q-10.68-14.16-18.22-18.66a31.29,31.29,0,0,0-16.4-4.51q-11.46,0-18.73,7a22.73,22.73,0,0,0-7.27,17.11,29.1,29.1,0,0,0,2.57,12q2.57,5.81,9.4,12.61,3.72,3.61,24.45,18.93,24.58,18.15,33.72,32.3t9.14,28.45q0,20.6-15.64,35.78t-38,15.19a55.83,55.83,0,0,1-31.28-9.2q-14-9.21-25.87-30.83" transform="translate(0 0)"/><polygon class="cls-3" points="1265.04 362.77 1265.04 381.31 1307.26 381.31 1307.26 471.1 1307.26 552.11 1326.57 552.11 1326.57 456.09 1326.57 381.31 1368.78 381.31 1368.78 362.77 1265.04 362.77"/><polygon class="cls-4" points="173.72 342.6 82.47 342.6 82.47 79.47 0 79.47 0 4.85 255.97 4.85 255.97 79.47 173.72 79.47 173.72 342.6"/><path class="cls-4" d="M395.5,219.7V342.59H304.25V4.85H414.91q137.67,0,137.68,99.8,0,58.68-57.29,90.79l98.41,147.15H490.22L418.6,219.7Zm0-68.62h17.09q47.84,0,47.82-42.27,0-34.89-46.89-34.89h-18Z" transform="translate(0 0)"/><path class="cls-4" d="M831.66,342.59,815,279.3H705.3l-17.1,63.29H587.94L698.13,3.46H819.88L931.46,342.59ZM796.08,204.45,781.53,149q-5.09-18.47-12.36-47.82t-9.59-42q-2.07,11.77-8.2,38.81t-27.14,106.5Z" transform="translate(0 0)"/><path class="cls-4" d="M1289.53,342.59H1169.87L1046.5,104.65h-2.08q4.39,56.13,4.4,85.71V342.59H968V4.85h119.2l122.9,234.71h1.39q-3.24-51-3.24-82V4.85h81.32Z" transform="translate(0 0)"/><polygon class="cls-3" points="1511.54 342.6 1420.29 342.6 1420.29 79.47 1337.82 79.47 1337.82 4.85 1593.79 4.85 1593.79 79.47 1511.54 79.47 1511.54 342.6"/><polygon class="cls-3" points="1842.59 342.6 1642.07 342.6 1642.07 4.85 1842.59 4.85 1842.59 78.08 1733.31 78.08 1733.31 131.22 1834.5 131.22 1834.5 204.45 1733.31 204.45 1733.31 268.21 1842.59 268.21 1842.59 342.6"/><path class="cls-3" d="M2052.12,74.84q-32.58,0-50.82,26.69t-18.25,73.58q0,97.48,74.15,97.49a151.78,151.78,0,0,0,43.43-6.24,433.63,433.63,0,0,0,42.28-15V328.5q-42.27,18.72-95.64,18.72-76.47,0-117.24-44.36t-40.78-128.21q0-52.44,19.76-92.18t56.82-61.1Q2002.91,0,2053,0A240.33,240.33,0,0,1,2157.7,23.79l-28,71.85a315.65,315.65,0,0,0-37.42-14.79,131,131,0,0,0-40.2-6" transform="translate(0 0)"/><polygon class="cls-3" points="2498.21 342.6 2406.5 342.6 2406.5 204.91 2300.46 204.91 2300.46 342.6 2208.75 342.6 2208.75 4.85 2300.46 4.85 2300.46 130.06 2406.5 130.06 2406.5 4.85 2498.21 4.85 2498.21 342.6"/></g></g></g></g></g></svg>