<svg xmlns="http://www.w3.org/2000/svg" viewBox="0 0 409.19 94.79"><defs><style>.cls-1{fill:#1c75bc;}.cls-2{fill:#fff;}</style></defs><g id="Layer_2" data-name="Layer 2"><g id="Layer_1-2" data-name="Layer 1"><path class="cls-1" d="M36.09,57.75H21.66V14.44H0V0H57.75V14.44H36.09Z"/><path class="cls-1" d="M93.83,40.43H75.06V28.88H93.83l1.44-1.45V24.54L93.83,23.1H72.17V57.75H60.62V11.55H98.16l8.66,8.66V31.76l-3.61,3.61L106.82,39V57.75H95.27V41.87Z"/><path class="cls-1" d="M120.52,44.76v13H109V28.88l15.16-15.16,2.17-2.17h11.55L140,13.72l15.16,15.16V57.75H143.62v-13Zm23.1-11.55L132.07,21.66,120.52,33.21Z"/><path class="cls-1" d="M168.87,31V57.75H157.32V11.55h7.94L192,38.26V11.55h11.55v46.2h-7.94Z"/><path class="cls-1" d="M241.76,57.75H227.32V14.44H205.67V0h57.75V14.44H241.76Z"/><path class="cls-1" d="M300.94,28.88V40.43h-23.1V46.2h34.65V57.75h-46.2V11.55h46.2V23.1H277.84v5.78Z"/><path class="cls-1" d="M360.84,46.2V57.75H323.3l-8.66-8.66V20.21l8.66-8.66h37.54V23.1H327.63l-1.44,1.44V44.76l1.44,1.44Z"/><path class="cls-1" d="M397.64,40.43h-23.1V57.75H363V11.55h11.55V28.88h23.1V11.55h11.55v46.2H397.64Z"/><path class="cls-2" d="M66.4,94.71A21,21,0,0,1,60.56,94,28.65,28.65,0,0,1,56,92.25V87h.29A15.3,15.3,0,0,0,61,90a13.46,13.46,0,0,0,5.06,1.07,8.22,8.22,0,0,0,5.26-1.45,5.2,5.2,0,0,0,.84-6.9,5.54,5.54,0,0,0-3-1.76c-1-.28-1.87-.52-2.67-.7s-1.82-.43-3-.74a14.17,14.17,0,0,1-2.93-1.08,8.35,8.35,0,0,1-2.29-1.72,7.37,7.37,0,0,1-1.51-2.45A9,9,0,0,1,56.27,71a8.15,8.15,0,0,1,3-6.43A11.21,11.21,0,0,1,66.89,62a23.11,23.11,0,0,1,5,.53,20.46,20.46,0,0,1,4.37,1.51v5H76a14.08,14.08,0,0,0-3.86-2.41,12.31,12.31,0,0,0-4.94-1A7.6,7.6,0,0,0,62.44,67a4.29,4.29,0,0,0-1.81,3.6,4.63,4.63,0,0,0,1.06,3.19,6.08,6.08,0,0,0,3.08,1.74c.89.24,2,.51,3.26.82s2.35.58,3.2.84a9,9,0,0,1,4.77,3,8.09,8.09,0,0,1,1.5,5,9.43,9.43,0,0,1-.75,3.65,8.6,8.6,0,0,1-2.11,3A11.11,11.11,0,0,1,71.2,94,13.52,13.52,0,0,1,66.4,94.71Z"/><path class="cls-2" d="M112.78,66.21a14.53,14.53,0,0,1,2.79,5.15,22.51,22.51,0,0,1,1,7,23,23,0,0,1-1,6.93,14.22,14.22,0,0,1-2.81,5.19,12,12,0,0,1-4.51,3.26,14.83,14.83,0,0,1-5.67,1,14.53,14.53,0,0,1-5.76-1.08,11.76,11.76,0,0,1-4.41-3.22,14.48,14.48,0,0,1-2.79-5.17,22.92,22.92,0,0,1-1-6.95,22.42,22.42,0,0,1,1-7,15.21,15.21,0,0,1,2.8-5.17A11.93,11.93,0,0,1,96.85,63a14.59,14.59,0,0,1,5.75-1.09,14.41,14.41,0,0,1,5.81,1.12A12.19,12.19,0,0,1,112.78,66.21Zm-.58,12.16a20.69,20.69,0,0,0-.67-5.55,11.78,11.78,0,0,0-1.91-4,8,8,0,0,0-3-2.44,10.21,10.21,0,0,0-8,0,8.35,8.35,0,0,0-3,2.46,11.73,11.73,0,0,0-1.92,4A21.13,21.13,0,0,0,93,78.37q0,6.21,2.6,9.51a9.07,9.07,0,0,0,14,0Q112.21,84.58,112.2,78.37Z"/><path class="cls-2" d="M148.14,94.14H129.85V62.58H134V90.41h14.1Z"/><path class="cls-2" d="M171.14,94.79a14.51,14.51,0,0,1-4.85-.73,9.25,9.25,0,0,1-3.54-2.17,9.15,9.15,0,0,1-2.33-4,20.36,20.36,0,0,1-.68-5.67V62.58h4.2V82.27a21.16,21.16,0,0,0,.27,3.68,6.89,6.89,0,0,0,1.08,2.68,5.37,5.37,0,0,0,2.3,1.93,8.56,8.56,0,0,0,3.55.65,8.77,8.77,0,0,0,3.5-.65A5.28,5.28,0,0,0,177,88.63,7.61,7.61,0,0,0,178.08,86a19.09,19.09,0,0,0,.29-3.58V62.58h4.19V82.27a21.09,21.09,0,0,1-.66,5.64,8.83,8.83,0,0,1-2.35,4,9.58,9.58,0,0,1-3.5,2.18A14.62,14.62,0,0,1,171.14,94.79Z"/><path class="cls-2" d="M204.63,94.14V66.31H194V62.58h25.39v3.73h-10.6V94.14Z"/><path class="cls-2" d="M242.3,94.14H230.05V90.92h4V65.81h-4V62.58H242.3v3.23h-4V90.92h4Z"/><path class="cls-2" d="M278.47,66.21a14.7,14.7,0,0,1,2.8,5.15,25.28,25.28,0,0,1,0,13.94,14.24,14.24,0,0,1-2.82,5.19A12,12,0,0,1,274,93.75a14.83,14.83,0,0,1-5.67,1,14.53,14.53,0,0,1-5.76-1.08,11.65,11.65,0,0,1-4.4-3.22,14.34,14.34,0,0,1-2.8-5.17,22.92,22.92,0,0,1-1-6.95,22.42,22.42,0,0,1,1-7,15.21,15.21,0,0,1,2.8-5.17,12,12,0,0,1,4.4-3.19,14.59,14.59,0,0,1,5.75-1.09,14.41,14.41,0,0,1,5.81,1.12A12.11,12.11,0,0,1,278.47,66.21Zm-.58,12.16a20.69,20.69,0,0,0-.67-5.55,11.6,11.6,0,0,0-1.91-4,8,8,0,0,0-3-2.44,9.27,9.27,0,0,0-4-.82,9.39,9.39,0,0,0-4,.8,8.43,8.43,0,0,0-3,2.46,11.73,11.73,0,0,0-1.92,4,21.13,21.13,0,0,0-.66,5.51q0,6.21,2.6,9.51a9.07,9.07,0,0,0,14,0Q277.9,84.58,277.89,78.37Z"/><path class="cls-2" d="M318.11,94.14H313.4L299.46,66.93V94.14h-3.92V62.58h5.95l12.7,25v-25h3.92Z"/><path class="cls-2" d="M342,94.71a21,21,0,0,1-5.84-.71,28.65,28.65,0,0,1-4.52-1.75V87h.3a15.25,15.25,0,0,0,4.7,3,13.46,13.46,0,0,0,5.06,1.07,8.22,8.22,0,0,0,5.26-1.45,4.7,4.7,0,0,0,1.78-3.83,4.82,4.82,0,0,0-.93-3.07,5.53,5.53,0,0,0-3-1.76c-1-.28-1.86-.52-2.67-.7s-1.82-.43-3-.74a14.08,14.08,0,0,1-2.92-1.08,8.06,8.06,0,0,1-2.29-1.72,7.4,7.4,0,0,1-1.52-2.45,9,9,0,0,1-.54-3.25,8.18,8.18,0,0,1,3-6.43,11.22,11.22,0,0,1,7.63-2.6,23.11,23.11,0,0,1,5,.53,20.74,20.74,0,0,1,4.38,1.51v5h-.32a13.93,13.93,0,0,0-3.86-2.41,12.28,12.28,0,0,0-4.94-1A7.6,7.6,0,0,0,338,67a4.3,4.3,0,0,0-1.8,3.6,4.59,4.59,0,0,0,1.06,3.19,6,6,0,0,0,3.07,1.74c.89.24,2,.51,3.26.82s2.35.58,3.2.84a9,9,0,0,1,4.77,3,8.09,8.09,0,0,1,1.5,5,9.43,9.43,0,0,1-.75,3.65,8.47,8.47,0,0,1-2.11,3A11,11,0,0,1,346.78,94,13.52,13.52,0,0,1,342,94.71Z"/></g></g></svg>