<svg xmlns="http://www.w3.org/2000/svg" viewBox="0 0 748.47 550.19"><defs><style>.cls-1{fill:#333132;}.cls-2{fill:#1c75bc;}.cls-3{fill:#27aae1;}</style></defs><g id="Layer_2" data-name="Layer 2"><g id="Layer_1-2" data-name="Layer 1"><polygon class="cls-1" points="0 0 0 58.59 87.89 58.59 87.89 234.37 146.48 234.37 146.48 58.59 234.38 58.59 234.38 0 0 0"/><polygon class="cls-1" points="234.4 478.75 175.81 478.75 175.81 302.97 87.92 302.97 87.92 244.38 322.52 244.38 322.52 302.97 234.4 302.97 234.4 478.75"/><polygon class="cls-1" points="370.27 379.22 370.27 419.03 290.65 419.03 290.65 438.94 410.08 438.94 410.08 478.75 250.84 478.75 250.84 319.51 410.08 319.51 410.08 359.32 290.65 359.32 290.65 379.22 370.27 379.22"/><polygon class="cls-1" points="579.28 438.94 579.28 478.75 449.89 478.75 420.03 448.89 420.03 349.37 449.89 319.51 579.28 319.51 579.28 359.32 464.82 359.32 459.84 364.29 459.84 433.96 464.82 438.94 579.28 438.94"/><polygon class="cls-1" points="708.66 319.51 708.66 379.22 629.04 379.22 629.04 319.51 589.23 319.51 589.23 478.75 629.04 478.75 629.04 419.03 708.66 419.03 708.66 478.75 748.47 478.75 748.47 319.51 708.66 319.51"/><path class="cls-2" d="M0,537.79l5-3q5.27,9.69,12.17,9.69a11.64,11.64,0,0,0,5.54-1.38,9.73,9.73,0,0,0,3.95-3.69,9.55,9.55,0,0,0,1.35-4.9,9.9,9.9,0,0,0-2-5.78q-2.76-3.91-10-9.41t-9.13-8a14.65,14.65,0,0,1-3.11-9,13.65,13.65,0,0,1,1.83-7,13.07,13.07,0,0,1,5.17-5,14.87,14.87,0,0,1,7.23-1.82,15.43,15.43,0,0,1,7.76,2.06q3.6,2.06,7.64,7.55l-4.79,3.63q-3.32-4.38-5.64-5.78a9.75,9.75,0,0,0-5.09-1.4A8,8,0,0,0,12,496.8a7,7,0,0,0-2.25,5.3,8.92,8.92,0,0,0,.8,3.71,13.6,13.6,0,0,0,2.91,3.91q1.15,1.11,7.57,5.86,7.62,5.63,10.45,10a16.09,16.09,0,0,1,2.83,8.81,15,15,0,0,1-4.84,11.09,16.32,16.32,0,0,1-11.79,4.7A17.25,17.25,0,0,1,8,547.34q-4.35-2.85-8-9.55"/><path class="cls-2" d="M115.5,488.58q13.34,0,22.31,8.89A30.84,30.84,0,0,1,116,550.19a30.06,30.06,0,0,1-22-8.93,29.39,29.39,0,0,1-9-21.61A31.26,31.26,0,0,1,89.07,504a30.22,30.22,0,0,1,26.43-15.39m.26,5.7a25.08,25.08,0,0,0-21.45,12.54A25.44,25.44,0,0,0,91,519.63a24.67,24.67,0,0,0,24.72,24.86,25.17,25.17,0,0,0,12.64-3.31,23.78,23.78,0,0,0,9.07-9.06,25.45,25.45,0,0,0,3.25-12.77,24.8,24.8,0,0,0-3.25-12.63,24.28,24.28,0,0,0-9.17-9,24.82,24.82,0,0,0-12.54-3.4"/><polygon class="cls-2" points="199.38 490.06 205.24 490.06 205.24 543.05 227.81 543.05 227.81 548.72 199.38 548.72 199.38 490.06"/><path class="cls-2" d="M278.13,490.06H284v35.41a72.81,72.81,0,0,0,.24,7.85,13.06,13.06,0,0,0,2,5.81,12,12,0,0,0,4.9,3.9,15.4,15.4,0,0,0,6.66,1.58,13.12,13.12,0,0,0,5.59-1.24,12.22,12.22,0,0,0,4.46-3.43,13.82,13.82,0,0,0,2.63-5.3q.6-2.24.6-9.17V490.06H317v35.41a43.24,43.24,0,0,1-1.53,12.7,17.23,17.23,0,0,1-6.14,8.43,17.55,17.55,0,0,1-11.15,3.59A21.36,21.36,0,0,1,286,546.8a16.3,16.3,0,0,1-6.78-9q-1.08-3.44-1.08-12.36Z"/><rect class="cls-3" x="447.01" y="490.06" width="5.86" height="58.66"/><path class="cls-3" d="M535.08,488.58q13.32,0,22.3,8.89a30.84,30.84,0,0,1-21.82,52.72,30,30,0,0,1-22-8.93,29.36,29.36,0,0,1-9-21.61A31.26,31.26,0,0,1,508.64,504a30.22,30.22,0,0,1,26.44-15.39m.26,5.7a25,25,0,0,0-21.45,12.54,25.34,25.34,0,0,0-3.28,12.81,24.67,24.67,0,0,0,24.73,24.86A25.19,25.19,0,0,0,548,541.18a23.75,23.75,0,0,0,9.06-9.06,25.46,25.46,0,0,0,3.26-12.77A24.81,24.81,0,0,0,557,506.72a24.25,24.25,0,0,0-9.16-9,24.82,24.82,0,0,0-12.54-3.4"/><polygon class="cls-3" points="619 548.72 619 490.06 620.27 490.06 659.31 535.02 659.31 490.06 665.09 490.06 665.09 548.72 663.78 548.72 625.06 504.3 625.06 548.72 619 548.72"/><path class="cls-3" d="M714.14,537.79l5-3q5.26,9.69,12.17,9.69a11.64,11.64,0,0,0,5.54-1.38,9.73,9.73,0,0,0,3.95-3.69,9.55,9.55,0,0,0,1.35-4.9,9.9,9.9,0,0,0-2-5.78q-2.76-3.91-10-9.41t-9.13-8a14.59,14.59,0,0,1-3.11-9,13.65,13.65,0,0,1,1.83-7,13.14,13.14,0,0,1,5.17-5,14.87,14.87,0,0,1,7.23-1.82,15.43,15.43,0,0,1,7.76,2.06q3.6,2.06,7.64,7.55l-4.79,3.63q-3.32-4.38-5.64-5.78a9.75,9.75,0,0,0-5.09-1.4,8,8,0,0,0-5.8,2.16,7,7,0,0,0-2.25,5.3,8.92,8.92,0,0,0,.8,3.71,13.6,13.6,0,0,0,2.91,3.91q1.15,1.11,7.57,5.86,7.62,5.63,10.45,10a16.09,16.09,0,0,1,2.83,8.81,15,15,0,0,1-4.84,11.09,16.32,16.32,0,0,1-11.79,4.7,17.3,17.3,0,0,1-9.69-2.85q-4.33-2.85-8-9.55"/><path class="cls-1" d="M322.52,104.81l-29.9-29.9H163.05V234.37h39.86v-59.8h74.76l5,5v54.81h39.87V169.59l-12.46-12.46,12.46-12.46Zm-39.87,24.91-5,5H202.91V114.77h74.76l5,5Z"/><path class="cls-1" d="M435.26,82.38l-7.47-7.47H387.92l-7.47,7.47-52.33,52.33v99.66H368V189.52h79.73v44.85h39.87V134.71Zm10,69a8.22,8.22,0,0,1-8.22,8.22H378.68a8.22,8.22,0,0,1-8.22-8.22V116.59a8.22,8.22,0,0,1,8.22-8.22H437a8.22,8.22,0,0,1,8.22,8.22Z"/><polygon class="cls-1" points="541.79 142.06 541.79 234.38 501.92 234.38 501.92 74.91 529.33 74.91 621.52 167.1 621.52 74.91 661.39 74.91 661.39 234.38 633.98 234.38 541.79 142.06"/><path class="cls-3" d="M403.63,154.35h0l-8.14,5.28h43.36a6.43,6.43,0,0,0,6.42-6.43V114.79a6.42,6.42,0,0,0-6.42-6.42H425.58l-8.25,5.34h21.1a1.46,1.46,0,0,1,1.47,1.46v37.9a1.46,1.46,0,0,1-1.45,1.28H421a.6.6,0,0,1-.6-.6V143.49Z"/><path class="cls-2" d="M412.08,113.64h0l8.14-5.27H376.85a6.42,6.42,0,0,0-6.42,6.42V153.2a6.43,6.43,0,0,0,6.42,6.43h13.28l8.25-5.35h-21.1a1.46,1.46,0,0,1-1.47-1.46V114.93a1.46,1.46,0,0,1,1.45-1.29h17.48a.6.6,0,0,1,.6.6V124.5Z"/><path class="cls-3" d="M426.84,168.92h-6.25l-3.36-7.5-19,.08-3.08,7.42h-6.25a.64.64,0,0,0-.65.64V172a.65.65,0,0,0,.65.64h37.9a.64.64,0,0,0,.64-.64v-2.44a.64.64,0,0,0-.64-.64"/><polygon class="cls-3" points="379.5 523.62 379.5 548.72 385.48 548.72 385.48 518.97 379.5 523.62"/><polygon class="cls-2" points="385.48 495.8 398.56 495.8 398.56 490.06 366.42 490.06 366.42 495.8 379.5 495.8 379.5 523.62 385.48 518.97 385.48 495.8"/></g></g></svg>