<?xml version="1.0" standalone="no"?>
<!DOCTYPE svg PUBLIC "-//W3C//DTD SVG 20010904//EN"
 "http://www.w3.org/TR/2001/REC-SVG-20010904/DTD/svg10.dtd">
<svg version="1.0" xmlns="http://www.w3.org/2000/svg"
 width="600.000000pt" height="600.000000pt" viewBox="0 0 600.000000 600.000000"
 preserveAspectRatio="xMidYMid meet">
<metadata>
Created by potrace 1.14, written by Peter Selinger 2001-2017
</metadata>
<g transform="translate(0.000000,600.000000) scale(0.100000,-0.100000)"
fill="#000000" stroke="none">
<path d="M429 5565 c-3 -2 -16 -7 -30 -9 -13 -2 -24 -5 -24 -6 0 -1 -7 -3 -15
-5 -35 -8 -113 -48 -156 -82 -90 -68 -145 -148 -179 -259 l-25 -81 3 -1624 c1
-893 6 -1635 9 -1649 4 -14 24 -59 44 -100 60 -122 190 -233 309 -265 17 -5
37 -10 45 -13 31 -10 5114 -10 5170 0 78 15 188 69 248 123 54 49 127 155 138
202 4 15 9 32 12 38 3 5 8 21 11 35 8 37 7 3259 -1 3300 -9 47 -44 126 -80
177 -62 91 -167 168 -279 203 -63 19 -91 20 -2630 20 -1411 0 -2568 -2 -2570
-5z m5072 -436 c29 -15 43 -28 57 -56 9 -16 12 -419 12 -1563 0 -1542 0 -1542
-21 -1571 -11 -16 -30 -34 -42 -41 -17 -9 -583 -12 -2502 -10 -2268 3 -2483 4
-2511 19 -69 35 -63 -92 -64 1606 0 1403 1 1539 16 1570 33 69 -177 64 2554
61 1962 -2 2483 -5 2501 -15z"/>
<path d="M3700 1321 c0 -3 -318 -6 -708 -6 -389 0 -720 -2 -736 -5 -34 -6 -23
15 -177 -355 -92 -223 -105 -249 -119 -240 -9 6 -14 6 -297 3 -116 -2 -215 -7
-219 -11 -5 -4 -10 -60 -12 -123 -3 -93 0 -120 12 -140 l16 -24 1538 0 c1275
0 1541 2 1557 13 16 12 18 29 19 135 0 85 -4 126 -12 134 -8 8 -43 13 -97 13
-47 0 -85 4 -85 8 0 5 -5 5 -12 1 -9 -6 -247 -9 -330 -5 -11 1 -26 20 -39 49
-12 26 -31 70 -44 97 -32 72 -65 145 -81 181 -7 16 -26 59 -42 95 -16 35 -30
67 -30 72 -1 4 -13 29 -26 56 -18 35 -32 50 -51 53 -14 3 -25 2 -25 -1z"/>
</g>
</svg>
