<svg xmlns="http://www.w3.org/2000/svg" xmlns:xlink="http://www.w3.org/1999/xlink" width="500" zoomAndPan="magnify" viewBox="0 0 375 374.999991" height="500" preserveAspectRatio="xMidYMid meet" version="1.0"><defs><g/></defs><rect x="-37.5" width="450" fill="#ffffff" y="-37.499999" height="449.999989" fill-opacity="1"/><rect x="-37.5" width="450" fill="#ffffff" y="-37.499999" height="449.999989" fill-opacity="1"/><rect x="-37.5" width="450" fill="#ffffff" y="-37.499999" height="449.999989" fill-opacity="1"/><g fill="#00c2cb" fill-opacity="1"><g transform="translate(48.70103, 211.889078)"><g><path d="M 8.375 0 L 8.375 -51.90625 L 0.75 -51.90625 L 0.75 -64.25 L 28.875 -64.25 L 28.875 -51.90625 L 21.25 -51.90625 L 21.25 0 Z M 8.375 0 "/></g></g></g><g fill="#00c2cb" fill-opacity="1"><g transform="translate(78.312699, 211.889078)"><g><path d="M 2.84375 -64.25 L 22.59375 -64.25 C 25.726562 -64.25 28.15625 -63.535156 29.875 -62.109375 C 31.601562 -60.691406 32.765625 -58.695312 33.359375 -56.125 C 33.953125 -53.5625 34.25 -50.285156 34.25 -46.296875 C 34.25 -42.660156 33.773438 -39.816406 32.828125 -37.765625 C 31.890625 -35.722656 30.25 -34.304688 27.90625 -33.515625 C 29.84375 -33.109375 31.25 -32.128906 32.125 -30.578125 C 33 -29.035156 33.4375 -26.945312 33.4375 -24.3125 L 33.28125 0 L 20.71875 0 L 20.71875 -25.125 C 20.71875 -26.925781 20.367188 -28.078125 19.671875 -28.578125 C 18.972656 -29.078125 17.703125 -29.328125 15.859375 -29.328125 L 15.859375 0 L 2.84375 0 Z M 19 -40.46875 C 20.789062 -40.46875 21.6875 -42.410156 21.6875 -46.296875 C 21.6875 -47.992188 21.613281 -49.265625 21.46875 -50.109375 C 21.320312 -50.960938 21.046875 -51.550781 20.640625 -51.875 C 20.242188 -52.195312 19.671875 -52.359375 18.921875 -52.359375 L 15.9375 -52.359375 L 15.9375 -40.46875 Z M 19 -40.46875 "/></g></g></g><g fill="#00c2cb" fill-opacity="1"><g transform="translate(113.981301, 211.889078)"><g><path d="M 1.125 0 L 7.328125 -64.25 L 29.09375 -64.25 L 35.234375 0 L 23.03125 0 L 22.140625 -10.390625 L 14.359375 -10.390625 L 13.609375 0 Z M 15.328125 -20.640625 L 21.171875 -20.640625 L 18.328125 -53.328125 L 17.734375 -53.328125 Z M 15.328125 -20.640625 "/></g></g></g><g fill="#00c2cb" fill-opacity="1"><g transform="translate(150.248115, 211.889078)"><g><path d="M 2.84375 0 L 2.84375 -64.25 L 16.078125 -64.25 L 21.984375 -33.515625 L 21.984375 -64.25 L 34.40625 -64.25 L 34.40625 0 L 21.84375 0 L 15.40625 -32.15625 L 15.40625 0 Z M 2.84375 0 "/></g></g></g><g fill="#263749" fill-opacity="1"><g transform="translate(187.478843, 211.889078)"><g><path d="M 8.375 0 L 8.375 -51.90625 L 0.75 -51.90625 L 0.75 -64.25 L 28.875 -64.25 L 28.875 -51.90625 L 21.25 -51.90625 L 21.25 0 Z M 8.375 0 "/></g></g></g><g fill="#263749" fill-opacity="1"><g transform="translate(217.090512, 211.889078)"><g><path d="M 2.84375 0 L 2.84375 -64.25 L 28.578125 -64.25 L 28.578125 -51.828125 L 15.9375 -51.828125 L 15.9375 -39.34375 L 28.046875 -39.34375 L 28.046875 -27.21875 L 15.9375 -27.21875 L 15.9375 -12.484375 L 29.390625 -12.484375 L 29.390625 0 Z M 2.84375 0 "/></g></g></g><g fill="#263749" fill-opacity="1"><g transform="translate(247.898607, 211.889078)"><g><path d="M 17.796875 0.59375 C 13.109375 0.59375 9.351562 -0.875 6.53125 -3.8125 C 3.71875 -6.757812 2.3125 -10.800781 2.3125 -15.9375 L 2.3125 -45.546875 C 2.3125 -51.929688 3.582031 -56.742188 6.125 -59.984375 C 8.675781 -63.222656 12.664062 -64.84375 18.09375 -64.84375 C 22.832031 -64.84375 26.648438 -63.546875 29.546875 -60.953125 C 32.441406 -58.359375 33.890625 -54.617188 33.890625 -49.734375 L 33.890625 -38.671875 L 21.09375 -38.671875 L 21.09375 -48.171875 C 21.09375 -50.015625 20.867188 -51.285156 20.421875 -51.984375 C 19.972656 -52.679688 19.195312 -53.03125 18.09375 -53.03125 C 16.945312 -53.03125 16.160156 -52.628906 15.734375 -51.828125 C 15.316406 -51.035156 15.109375 -49.863281 15.109375 -48.3125 L 15.109375 -16.078125 C 15.109375 -14.378906 15.359375 -13.144531 15.859375 -12.375 C 16.359375 -11.601562 17.101562 -11.21875 18.09375 -11.21875 C 20.09375 -11.21875 21.09375 -12.835938 21.09375 -16.078125 L 21.09375 -27.671875 L 34.03125 -27.671875 L 34.03125 -15.5625 C 34.03125 -4.789062 28.617188 0.59375 17.796875 0.59375 Z M 17.796875 0.59375 "/></g></g></g><g fill="#263749" fill-opacity="1"><g transform="translate(283.342883, 211.889078)"><g><path d="M 2.84375 0 L 2.84375 -64.25 L 15.625 -64.25 L 15.625 -41.28125 L 21.6875 -41.28125 L 21.6875 -64.25 L 34.484375 -64.25 L 34.484375 0 L 21.6875 0 L 21.6875 -29.171875 L 15.625 -29.171875 L 15.625 0 Z M 2.84375 0 "/></g></g></g><g fill="#263749" fill-opacity="1"><g transform="translate(55.221099, 240.897216)"><g><path d="M 7.765625 0.453125 C 6.554688 0.453125 5.367188 0.34375 4.203125 0.125 C 3.035156 -0.0820312 2.082031 -0.363281 1.34375 -0.71875 L 1.34375 -3.46875 C 3.257812 -2.570312 5.328125 -2.125 7.546875 -2.125 C 10.660156 -2.125 12.21875 -3.171875 12.21875 -5.265625 C 12.21875 -5.984375 12.046875 -6.5625 11.703125 -7 C 11.367188 -7.445312 10.878906 -7.832031 10.234375 -8.15625 C 9.597656 -8.488281 8.5625 -8.945312 7.125 -9.53125 C 5.144531 -10.320312 3.71875 -11.195312 2.84375 -12.15625 C 1.96875 -13.113281 1.53125 -14.320312 1.53125 -15.78125 C 1.53125 -16.882812 1.828125 -17.859375 2.421875 -18.703125 C 3.023438 -19.554688 3.863281 -20.21875 4.9375 -20.6875 C 6.019531 -21.15625 7.257812 -21.390625 8.65625 -21.390625 C 9.789062 -21.390625 10.816406 -21.296875 11.734375 -21.109375 C 12.660156 -20.929688 13.5625 -20.644531 14.4375 -20.25 L 14.4375 -17.609375 C 12.695312 -18.390625 10.941406 -18.78125 9.171875 -18.78125 C 7.734375 -18.78125 6.632812 -18.519531 5.875 -18 C 5.113281 -17.476562 4.734375 -16.738281 4.734375 -15.78125 C 4.734375 -15.125 4.894531 -14.570312 5.21875 -14.125 C 5.550781 -13.675781 6.039062 -13.273438 6.6875 -12.921875 C 7.34375 -12.578125 8.304688 -12.144531 9.578125 -11.625 C 11.003906 -11.039062 12.125 -10.488281 12.9375 -9.96875 C 13.757812 -9.457031 14.382812 -8.828125 14.8125 -8.078125 C 15.238281 -7.328125 15.453125 -6.390625 15.453125 -5.265625 C 15.453125 -3.453125 14.800781 -2.046875 13.5 -1.046875 C 12.207031 -0.046875 10.296875 0.453125 7.765625 0.453125 Z M 7.765625 0.453125 "/></g></g></g><g fill="#263749" fill-opacity="1"><g transform="translate(84.293203, 240.897216)"><g><path d="M 12.375 0.453125 C 10.289062 0.453125 8.410156 0 6.734375 -0.90625 C 5.054688 -1.820312 3.738281 -3.109375 2.78125 -4.765625 C 1.820312 -6.421875 1.34375 -8.316406 1.34375 -10.453125 C 1.34375 -12.585938 1.820312 -14.484375 2.78125 -16.140625 C 3.738281 -17.796875 5.054688 -19.082031 6.734375 -20 C 8.410156 -20.925781 10.289062 -21.390625 12.375 -21.390625 C 14.445312 -21.390625 16.320312 -20.925781 18 -20 C 19.675781 -19.082031 20.992188 -17.796875 21.953125 -16.140625 C 22.910156 -14.484375 23.390625 -12.585938 23.390625 -10.453125 C 23.390625 -8.316406 22.910156 -6.421875 21.953125 -4.765625 C 20.992188 -3.109375 19.675781 -1.820312 18 -0.90625 C 16.320312 0 14.445312 0.453125 12.375 0.453125 Z M 12.375 -2.3125 C 13.851562 -2.3125 15.195312 -2.644531 16.40625 -3.3125 C 17.613281 -3.976562 18.566406 -4.925781 19.265625 -6.15625 C 19.960938 -7.382812 20.3125 -8.816406 20.3125 -10.453125 C 20.3125 -12.066406 19.960938 -13.488281 19.265625 -14.71875 C 18.578125 -15.945312 17.632812 -16.894531 16.4375 -17.5625 C 15.238281 -18.238281 13.90625 -18.578125 12.4375 -18.578125 C 10.9375 -18.578125 9.582031 -18.242188 8.375 -17.578125 C 7.164062 -16.921875 6.207031 -15.972656 5.5 -14.734375 C 4.789062 -13.492188 4.4375 -12.066406 4.4375 -10.453125 C 4.4375 -8.816406 4.785156 -7.382812 5.484375 -6.15625 C 6.179688 -4.925781 7.132812 -3.976562 8.34375 -3.3125 C 9.550781 -2.644531 10.894531 -2.3125 12.375 -2.3125 Z M 12.375 -2.3125 "/></g></g></g><g fill="#263749" fill-opacity="1"><g transform="translate(121.297526, 240.897216)"><g><path d="M 1.953125 -20.9375 L 5 -20.9375 L 5 -2.546875 L 15.609375 -2.546875 L 15.609375 0 L 1.953125 0 Z M 1.953125 -20.9375 "/></g></g></g><g fill="#263749" fill-opacity="1"><g transform="translate(149.920648, 240.897216)"><g><path d="M 10.453125 0.453125 C 7.597656 0.453125 5.441406 -0.28125 3.984375 -1.75 C 2.523438 -3.21875 1.796875 -5.238281 1.796875 -7.8125 L 1.796875 -20.9375 L 4.859375 -20.9375 L 4.859375 -7.703125 C 4.859375 -5.921875 5.351562 -4.578125 6.34375 -3.671875 C 7.34375 -2.765625 8.710938 -2.3125 10.453125 -2.3125 C 12.171875 -2.3125 13.53125 -2.765625 14.53125 -3.671875 C 15.53125 -4.578125 16.03125 -5.921875 16.03125 -7.703125 L 16.03125 -20.9375 L 19.078125 -20.9375 L 19.078125 -7.8125 C 19.078125 -5.257812 18.347656 -3.242188 16.890625 -1.765625 C 15.429688 -0.285156 13.285156 0.453125 10.453125 0.453125 Z M 10.453125 0.453125 "/></g></g></g><g fill="#263749" fill-opacity="1"><g transform="translate(183.063627, 240.897216)"><g><path d="M 7.25 -18.359375 L 0.75 -18.359375 L 0.75 -20.9375 L 16.828125 -20.9375 L 16.828125 -18.359375 L 10.328125 -18.359375 L 10.328125 0 L 7.25 0 Z M 7.25 -18.359375 "/></g></g></g><g fill="#263749" fill-opacity="1"><g transform="translate(212.914, 240.897216)"><g><path d="M 1.953125 -20.9375 L 5.03125 -20.9375 L 5.03125 0 L 1.953125 0 Z M 1.953125 -20.9375 "/></g></g></g><g fill="#263749" fill-opacity="1"><g transform="translate(232.168145, 240.897216)"><g><path d="M 12.375 0.453125 C 10.289062 0.453125 8.410156 0 6.734375 -0.90625 C 5.054688 -1.820312 3.738281 -3.109375 2.78125 -4.765625 C 1.820312 -6.421875 1.34375 -8.316406 1.34375 -10.453125 C 1.34375 -12.585938 1.820312 -14.484375 2.78125 -16.140625 C 3.738281 -17.796875 5.054688 -19.082031 6.734375 -20 C 8.410156 -20.925781 10.289062 -21.390625 12.375 -21.390625 C 14.445312 -21.390625 16.320312 -20.925781 18 -20 C 19.675781 -19.082031 20.992188 -17.796875 21.953125 -16.140625 C 22.910156 -14.484375 23.390625 -12.585938 23.390625 -10.453125 C 23.390625 -8.316406 22.910156 -6.421875 21.953125 -4.765625 C 20.992188 -3.109375 19.675781 -1.820312 18 -0.90625 C 16.320312 0 14.445312 0.453125 12.375 0.453125 Z M 12.375 -2.3125 C 13.851562 -2.3125 15.195312 -2.644531 16.40625 -3.3125 C 17.613281 -3.976562 18.566406 -4.925781 19.265625 -6.15625 C 19.960938 -7.382812 20.3125 -8.816406 20.3125 -10.453125 C 20.3125 -12.066406 19.960938 -13.488281 19.265625 -14.71875 C 18.578125 -15.945312 17.632812 -16.894531 16.4375 -17.5625 C 15.238281 -18.238281 13.90625 -18.578125 12.4375 -18.578125 C 10.9375 -18.578125 9.582031 -18.242188 8.375 -17.578125 C 7.164062 -16.921875 6.207031 -15.972656 5.5 -14.734375 C 4.789062 -13.492188 4.4375 -12.066406 4.4375 -10.453125 C 4.4375 -8.816406 4.785156 -7.382812 5.484375 -6.15625 C 6.179688 -4.925781 7.132812 -3.976562 8.34375 -3.3125 C 9.550781 -2.644531 10.894531 -2.3125 12.375 -2.3125 Z M 12.375 -2.3125 "/></g></g></g><g fill="#263749" fill-opacity="1"><g transform="translate(269.172467, 240.897216)"><g><path d="M 1.953125 -20.9375 L 4.859375 -20.9375 L 15.515625 -5.15625 L 15.515625 -20.9375 L 18.59375 -20.9375 L 18.59375 0 L 15.671875 0 L 5 -15.78125 L 5 0 L 1.953125 0 Z M 1.953125 -20.9375 "/></g></g></g><g fill="#263749" fill-opacity="1"><g transform="translate(301.986179, 240.897216)"><g><path d="M 7.765625 0.453125 C 6.554688 0.453125 5.367188 0.34375 4.203125 0.125 C 3.035156 -0.0820312 2.082031 -0.363281 1.34375 -0.71875 L 1.34375 -3.46875 C 3.257812 -2.570312 5.328125 -2.125 7.546875 -2.125 C 10.660156 -2.125 12.21875 -3.171875 12.21875 -5.265625 C 12.21875 -5.984375 12.046875 -6.5625 11.703125 -7 C 11.367188 -7.445312 10.878906 -7.832031 10.234375 -8.15625 C 9.597656 -8.488281 8.5625 -8.945312 7.125 -9.53125 C 5.144531 -10.320312 3.71875 -11.195312 2.84375 -12.15625 C 1.96875 -13.113281 1.53125 -14.320312 1.53125 -15.78125 C 1.53125 -16.882812 1.828125 -17.859375 2.421875 -18.703125 C 3.023438 -19.554688 3.863281 -20.21875 4.9375 -20.6875 C 6.019531 -21.15625 7.257812 -21.390625 8.65625 -21.390625 C 9.789062 -21.390625 10.816406 -21.296875 11.734375 -21.109375 C 12.660156 -20.929688 13.5625 -20.644531 14.4375 -20.25 L 14.4375 -17.609375 C 12.695312 -18.390625 10.941406 -18.78125 9.171875 -18.78125 C 7.734375 -18.78125 6.632812 -18.519531 5.875 -18 C 5.113281 -17.476562 4.734375 -16.738281 4.734375 -15.78125 C 4.734375 -15.125 4.894531 -14.570312 5.21875 -14.125 C 5.550781 -13.675781 6.039062 -13.273438 6.6875 -12.921875 C 7.34375 -12.578125 8.304688 -12.144531 9.578125 -11.625 C 11.003906 -11.039062 12.125 -10.488281 12.9375 -9.96875 C 13.757812 -9.457031 14.382812 -8.828125 14.8125 -8.078125 C 15.238281 -7.328125 15.453125 -6.390625 15.453125 -5.265625 C 15.453125 -3.453125 14.800781 -2.046875 13.5 -1.046875 C 12.207031 -0.046875 10.296875 0.453125 7.765625 0.453125 Z M 7.765625 0.453125 "/></g></g></g></svg>